<mxfile host="app.diagrams.net" modified="2021-07-14T04:13:46.745Z" agent="5.0 (Windows NT 10.0; Win64; x64) AppleWebKit/537.36 (KHTML, like Gecko) Chrome/91.0.4472.124 Safari/537.36" etag="q32jNMn8WTaY0evBlzHH" version="14.8.5" type="github" pages="4">
  <diagram id="OiAdG7TxA3gKg6y4t-il" name="01. /services/api/rest/ImportForQuote">
    <mxGraphModel dx="1234" dy="1328" grid="1" gridSize="10" guides="1" tooltips="1" connect="1" arrows="1" fold="1" page="1" pageScale="1" pageWidth="1100" pageHeight="850" math="0" shadow="0">
      <root>
        <mxCell id="0" />
        <mxCell id="1" parent="0" />
        <mxCell id="1lkWncFinOV1puRLaE7o-2" value="POSTÂ {{host}}/services/api/rest/ImportForQuote" style="swimlane;fontStyle=1;childLayout=stackLayout;horizontal=1;startSize=26;horizontalStack=0;resizeParent=1;resizeParentMax=0;resizeLast=0;collapsible=1;marginBottom=0;fontColor=#FF0080;" parent="1" vertex="1">
          <mxGeometry y="-380" width="520" height="118" as="geometry" />
        </mxCell>
        <mxCell id="1lkWncFinOV1puRLaE7o-3" value="Import a shipment in the Banyan System." style="text;strokeColor=#6c8ebf;fillColor=#dae8fc;align=left;verticalAlign=top;spacingLeft=4;spacingRight=4;overflow=hidden;rotatable=0;points=[[0,0.5],[1,0.5]];portConstraint=eastwest;" parent="1lkWncFinOV1puRLaE7o-2" vertex="1">
          <mxGeometry y="26" width="520" height="26" as="geometry" />
        </mxCell>
        <mxCell id="1lkWncFinOV1puRLaE7o-4" value="Initiate the rating process and will return a response immediately with LoadID as identifier." style="text;strokeColor=#82b366;fillColor=#d5e8d4;align=left;verticalAlign=top;spacingLeft=4;spacingRight=4;overflow=hidden;rotatable=0;points=[[0,0.5],[1,0.5]];portConstraint=eastwest;" parent="1lkWncFinOV1puRLaE7o-2" vertex="1">
          <mxGeometry y="52" width="520" height="26" as="geometry" />
        </mxCell>
        <mxCell id="1lkWncFinOV1puRLaE7o-5" value="Following this request would be a loop of calling GetQuotes to return the quotes on the created shipment." style="text;strokeColor=#9673a6;fillColor=#e1d5e7;align=left;verticalAlign=top;spacingLeft=4;spacingRight=4;overflow=hidden;rotatable=0;points=[[0,0.5],[1,0.5]];portConstraint=eastwest;whiteSpace=wrap;" parent="1lkWncFinOV1puRLaE7o-2" vertex="1">
          <mxGeometry y="78" width="520" height="40" as="geometry" />
        </mxCell>
        <mxCell id="oROay4NZP8Qruy1n3SG--2" style="edgeStyle=orthogonalEdgeStyle;rounded=0;orthogonalLoop=1;jettySize=auto;html=1;" parent="1" source="1lkWncFinOV1puRLaE7o-6" target="oROay4NZP8Qruy1n3SG--1" edge="1">
          <mxGeometry relative="1" as="geometry">
            <Array as="points">
              <mxPoint x="320" y="-190" />
              <mxPoint x="320" y="-165" />
            </Array>
          </mxGeometry>
        </mxCell>
        <mxCell id="1lkWncFinOV1puRLaE7o-6" value="Shipment" style="rounded=0;whiteSpace=wrap;html=1;fillColor=#d5e8d4;strokeColor=#82b366;" parent="1" vertex="1">
          <mxGeometry x="10" y="-220" width="230" height="60" as="geometry" />
        </mxCell>
        <mxCell id="1lkWncFinOV1puRLaE7o-7" value="Turvo" style="text;html=1;align=center;verticalAlign=middle;resizable=0;points=[];autosize=1;strokeColor=none;fontColor=#FF0080;" parent="1" vertex="1">
          <mxGeometry x="100" y="-240" width="50" height="20" as="geometry" />
        </mxCell>
        <mxCell id="1lkWncFinOV1puRLaE7o-13" value="1. Importing Shipment" style="text;html=1;strokeColor=none;fillColor=none;align=center;verticalAlign=middle;whiteSpace=wrap;rounded=0;fontColor=#FF0080;" parent="1" vertex="1">
          <mxGeometry x="240" y="-210" width="130" height="20" as="geometry" />
        </mxCell>
        <mxCell id="1lkWncFinOV1puRLaE7o-15" value="Banyan" style="swimlane;fontColor=#FF0080;startSize=23;" parent="1" vertex="1">
          <mxGeometry x="370" y="-220" width="390" height="160" as="geometry" />
        </mxCell>
        <mxCell id="oROay4NZP8Qruy1n3SG--6" style="edgeStyle=orthogonalEdgeStyle;rounded=0;orthogonalLoop=1;jettySize=auto;html=1;entryX=0.5;entryY=0;entryDx=0;entryDy=0;" parent="1lkWncFinOV1puRLaE7o-15" source="oROay4NZP8Qruy1n3SG--1" target="oROay4NZP8Qruy1n3SG--5" edge="1">
          <mxGeometry relative="1" as="geometry" />
        </mxCell>
        <mxCell id="oROay4NZP8Qruy1n3SG--1" value="Importing Shipment" style="rounded=0;whiteSpace=wrap;html=1;fillColor=#dae8fc;strokeColor=#6c8ebf;" parent="1lkWncFinOV1puRLaE7o-15" vertex="1">
          <mxGeometry x="30" y="40" width="220" height="30" as="geometry" />
        </mxCell>
        <mxCell id="oROay4NZP8Qruy1n3SG--5" value="LoadID is generated and returned." style="rounded=0;whiteSpace=wrap;html=1;fillColor=#dae8fc;strokeColor=#6c8ebf;" parent="1lkWncFinOV1puRLaE7o-15" vertex="1">
          <mxGeometry x="30" y="120" width="220" height="30" as="geometry" />
        </mxCell>
        <mxCell id="BpCV8GKEyDNsDf4MUvl9-3" value="&lt;font color=&quot;#ff0080&quot;&gt;2&lt;/font&gt;" style="text;html=1;align=center;verticalAlign=middle;resizable=0;points=[];autosize=1;strokeColor=none;" parent="1lkWncFinOV1puRLaE7o-15" vertex="1">
          <mxGeometry x="140" y="90" width="20" height="20" as="geometry" />
        </mxCell>
        <mxCell id="oROay4NZP8Qruy1n3SG--3" value="Rate Process starts separately" style="rounded=0;whiteSpace=wrap;html=1;fillColor=#dae8fc;strokeColor=#6c8ebf;" parent="1" vertex="1">
          <mxGeometry x="560" y="-140" width="180" height="30" as="geometry" />
        </mxCell>
        <mxCell id="oROay4NZP8Qruy1n3SG--4" style="edgeStyle=orthogonalEdgeStyle;rounded=0;orthogonalLoop=1;jettySize=auto;html=1;entryX=0.856;entryY=0;entryDx=0;entryDy=0;entryPerimeter=0;" parent="1" source="oROay4NZP8Qruy1n3SG--1" target="oROay4NZP8Qruy1n3SG--3" edge="1">
          <mxGeometry relative="1" as="geometry">
            <Array as="points">
              <mxPoint x="640" y="-165" />
              <mxPoint x="640" y="-160" />
              <mxPoint x="714" y="-160" />
            </Array>
          </mxGeometry>
        </mxCell>
        <mxCell id="oROay4NZP8Qruy1n3SG--7" style="edgeStyle=orthogonalEdgeStyle;rounded=0;orthogonalLoop=1;jettySize=auto;html=1;entryX=0.461;entryY=1.1;entryDx=0;entryDy=0;entryPerimeter=0;" parent="1" source="oROay4NZP8Qruy1n3SG--5" target="1lkWncFinOV1puRLaE7o-6" edge="1">
          <mxGeometry relative="1" as="geometry" />
        </mxCell>
        <mxCell id="oROay4NZP8Qruy1n3SG--8" value="3 LoadID" style="text;html=1;strokeColor=none;fillColor=none;align=center;verticalAlign=middle;whiteSpace=wrap;rounded=0;fontColor=#FF0080;" parent="1" vertex="1">
          <mxGeometry x="190" y="-100" width="120" height="20" as="geometry" />
        </mxCell>
        <mxCell id="BpCV8GKEyDNsDf4MUvl9-2" value="&lt;font color=&quot;#ff0080&quot;&gt;2&lt;/font&gt;" style="text;html=1;align=center;verticalAlign=middle;resizable=0;points=[];autosize=1;strokeColor=none;" parent="1" vertex="1">
          <mxGeometry x="650" y="-180" width="20" height="20" as="geometry" />
        </mxCell>
        <mxCell id="GOgP3sXONhZIXAOzlcGX-1" value="" style="shape=image;verticalLabelPosition=bottom;labelBackgroundColor=#ffffff;verticalAlign=top;aspect=fixed;imageAspect=0;image=data:image/png,iVBORw0KGgoAAAANSUhEUgAAAqYAAADiCAYAAACcLQXMAAAgAElEQVR4Aey9vWtbyfc//vtzbicwuAi4CKwrq4kgEMEWb5FCEIhgISLFhm9hsWAubuQmZsGIhaAUi1wEGRb8AYMKoxQGGQIKBKUICqQQuBAEVBheP8483Dt37twn+SGWfQyJRlfzcOY1Z8687syZmf8P/McIMAKMACPACDACjAAjwAjcAQT+vzsgA4vACDACjAAjwAgwAowAI8AIgIkpKwEjwAgwAowAI8AIMAKMwJ1AgInpnWgGFoIRYAQYAUaAEWAEGAFGgIkp6wAjwAgwAowAI8AIMAKMwJ1AgInpnWgGFoIRYAQYAUaAEWAEGAFGgIkp6wAjwAgwAowAI8AIMAKMwJ1AgInpnWgGFoIRYAQYAUaAEWAEGAFGgIkp6wAjwAgwAowAI8AIMAKMwJ1AIIOYjuB7HjxvE/7HRYrAM/TqHrx6D7OUWLl+uhzBX6uj9yNXbI7ECDACjAAjwAgwAowAI3BPEMhJTD14Wz5GP5NqfY3E9PM+Nj0mpklI83NGgBFgBBgBRoARYATuKwK5iGmlXsem56G8O4J73vSaiOnlAuN/qvCYmN5XfeN6MQKMACPACDACjAAjkIhAPmL6boThziY8r4z2uYuaphPT+ec+/JdlrAu3AA/rWw34R2PMLw255gO0HpfgqTjmp39mxAOw+DbAfpBfCRu/N9E5jTsRLD76WPdKqLxNItTRfPkbI8AIMAKMACPACDACjMCvQyAXMfV2R8DPAVprtKTfxijGTZOJ6fSwjpLnYf1ZE+3DAYYnPbRfVwVJLb3oYarJ6WKK0ekQ/Z0KPK8C/2iI4an8N7kIAVqc+Sh7HkpPmuhQnJMe/Ofr8LwS6ofTMCKA0Z4iutfh+xrJmb8wAowAI8AIMAKMACPACFw3AvmJKc1UDlqCZJb/HltyJBDTr11UPQ+bO8Po7CiA+akv3AOq7yaRvGaH9eSl/MVQkuO6QWhF6gUG20RCLd/U78doPW/AH8RnUyOF8hdGgBFgBBgBRoARYAQYgV+OQCFiCmgCWMb+Z1N2NzEd7RJZbKBvzHiGqebo/+HBW/Mx0rOmANKI6fy/pjghYP9TmEsQEpumPNQPmYQGmHCAEWAEGAFGgBFgBBiBFUKgIDEFcHGMJi3pP+tiEhBKFzGdovc/D97TLqJzoiE6039rYtm++zV8lkZMR7t0dFULg5grAYAfPdTJP5XcDviPEWAEGAFGgBFgBBgBRmDlEChOTGkZ/r+mWNIPl+FdxFSdgZri3ylJqAdzc1MyMVVlODZHmRulmJiunA6ywIwAI8AIMAKMACPACAgEliKmwAz9F7RMX4Wc7bxNYtpAR22K0pujIp9f5ty0jAAjwAgwAowAI8AIMAIriMCSxJSWzvuo05K+2IjkIqbXv5Q/3ElZyl9B8FlkRoARYAQYAUaAEWAEGIEQgeWJKQB9FFT936HzStLx33T26TVufjpqiGOhWqcuJ9OwUhxiBBgBRoARYAQYAUaAEVg9BK5ETHE5lYR0rY46bXSy/UnVhiTXcVH6PFL76KnZBzouqhTxOw1g1cdFbfkYulbsaTNWsCELgDguqobW//FO/QBDDjACjAAjwAgwAowAI3BHEbgaMaVKfVe74WlTkk1MaVb1Q0Mcpr/+vIWuODS/j+52LX7AvgZI7/p/VMO+in98FrLQxVkbFXIhWKugudNB72SA3kEb/usayo+i55jyAfsaVP5kBBgBRoARYAQYAUbg7iNwdWIKYPKO7rd3E1OCwHkl6eEIM3N208Bq8amL5jO6zYkI6Aaa/1kznj9G6O02UH5EPqf0r4SNJw203g8wNVb5F+dtlOlK0gP7QgCjMA4yAowAI8AIMAKMACPACNwJBDKI6Z2QkYVgBBgBRoARYAQYAUaAEXgACDAxfQCNzFVkBBgBRoARYAQYAUZgFRBgYroKrcQyMgKMACPACDACjAAj8AAQYGL6ABqZq8gIMAKMACPACDACjMAqIMDEdBVaiWVkBBgBRoARYAQYAUbgASDAxPQBNDJXkRFgBBgBRoARYAQYgVVAgInpKrQSy8gIMAKMACPACDACjMADQICJ6QNoZK4iI8AIMAKMACPACDACq4AAE9NVaCWWkRFgBBgBRoARYAQYgQeAABPTB9DIXEVGgBFgBBgBRoARYARWAQEmpqvQSiwjI8AIMAKMACPACDACDwABJqYPoJG5iowAI8AIMAKMACPACKwCAkxMV6GVWEZGgBFgBBgBRoARYAQeAAJMTB9AI3MVGQFGgBFgBBgBRoARWAUEmJiuQiuxjIwAI8AIMAKMACPACDwABJiYPoBG5ioyAowAI8AIMAKMACOwCggwMV2FVmIZGQFGgBFgBBgBRoAReAAIMDF9AI3MVWQEGAFGgBFgBBgBRmAVEGBiugqtxDIyAowAI8AIMAKMACPwABBgYvoAGpmryAgwAowAI8AIMAKMwCogwMR0FVqJZWQEGAFGgBFgBBgBRuABIMDE9AE0MleREWAEGAFGgBFgBBiBVUCAiekqtBLLyAgwAowAI8AIMAKMwANAgInpA2hkriIjwAgwAowAI8AIMAKrgAAT01VoJZaREWAEGAFGgBFgBBiBB4AAE9MH0MhcRUaAEWAEGAFGgBFgBFYBASamq9BKLCMjwAgwAowAI8AIMAIPAAEmpg+gkbmKjAAjwAgwAowAI8AIrAICTExXoZVWXcafc8wXq14Jlj8RAW7fRGj4h3uCAOv4PWlIrsYqIMDE9AZbabTrwfN8jG6wjLuf9QjtNQ/eb/sY331hWcLCCFxH+87Qq3vw6j3MCpfPCRiBm0bAreNO+37mw/M8+Gc3LVPe/G+mbznrnlckjscIZCDAxFQBNP57E563if3PbsTm/zWFwfG2B3BP/ikDsOZjdCnz4M5LOMzQf1FC6UWfSYdbtVb86XW0780MnrcC7OUI/lodvR+3UhoXQhblsA5v9zZf99067rTvTEwfjo7+6KFedOJpmTQPB9GgpkxMNRRnPkqeh/qha85mgcE2zX568NZaGLqY6WKAFv3+6hhzlafTcOny+JMRYAQUAitMTD/vY9NjYnp7qjzH8Svvlompu3ZO+87E1A3WPXwqJ6uKrYguk+YeQpdZJSamGiIHsdQ/QcyKeKjU69j0Su5lGgexdRquIFMOMAKMgERgRYnp5QLjf6rwmJjeniJfHKNFrkG3OmPqrp7TvjMxdYN1355eznG8XSrmqrdMmvuGW876MDENgFJv4p6PoVqKD34SpLME/+MQ/pqHzbdxb8nJuwo8r4Lu1yAVAsN1Ocf4sIXqY1JkD96jMmqvOxi6Jmcp+c8pBm8bKD+Ss7Slx1U0D4aY2XKJZQFV5o8h9l9WsEFG2/OwvtWAfzRJcDsIZZShDGIgynHMJs+G6LyuBXJ6axuoPG+ifTgOZo1pKd/pPygMeAuDBTD/3EPreRnrhI1XwsbvTXQ+usBZYHLko/FkQ8xuCyxFGjWbnTjjbdT3coHpWQ/+y0oot2iPLkZ6qtuILoLUHgfNsP28dZSfN7F/aslYJF6e9qVly48dNANsPJQeV1B73UbvU1TYvPFEfX5Qu1UDXUnUL4pstBNmpGO6nfRMQUL7FsI5IY+fE/R3G6jofkO4P22g9X6AqWvVwm632HdZTuXdBMACE6NPmisli+8j9KjcrXXZX1V7d88NzOcDtAK5Qv0jnbT9C2fnXbR+1zq7jvJLH/3PRl4xOY0HZh//OUFvW7dbfJa2UDnzscBW25jQXkiMTDyAEXzqZ0lkMI2M5bVlOXR98q6qbEQU7zTf5NEe2dw6+lZXBSboPqV8XO5baiwI/OLd+hnYd6O5ZH+J64AZJRKmsYFsmqlrifph6O/lDMO3Rt94VEZjt4/Jz0juwpUqYn8/0Qy/h+r7qR1Rfr8cY/83D96zLhJiiHhB3UkO0zaSHG8dY5Uu7XKG0fvoWEhyj3N2B9FvrTFgfauCxnYXg+9xo5C3T4j6kJueGqtruj3WNlC1x+ovXVTV2Bwdg+J9UlcbedMU0ocg93sXYGJqNOn035rTUEn/UyJRakk/MFg6sTJc1nPZeRt48+c6Sk+IsA0wPB2gt9dEhQjklo+RbUh+juBvkctABc2Dvoy/WxMGufSih6lJThVhfPNPF/W1ddS2O+idDDE4bKP5hAxyCfXDNPNiyZ+0+cRFTH/0UV/zjHpRuR20iLj80c9JTCtov/NRprrudNE/HaL/voWa6PRl+GdRQzP+uwzPW0ft7QCTH3PMf0wweCux2dgdYHYxx8LER1fP/FwM0VorYeNFCx3RHkP0Dxoo08C7tY+xnV63B5W73UZ7j/75aP5exf4nI+Oi8XK07+xDHSWvhMqrtmhXoTsHLTGINY5CS543Hkm7OPNFXUuP62i9J/3qo7tdlyTVpY+CdNTRO6P2lrgJDA4GymfYPWijEM6OPBYjtKkfPKopOYcYHnXhE6F2tZPRFMlBVc7uAKO9MrxHVTR3ZJv2P2tdW2D4VwkCn4MeBqdUbgcNksUrhz7oiylGpK878oXUPxpiSHFPh5hchBJMD6kNPaw/92UbHnVU34zrd5jKCKm+5w8kHuvPmvCFDvYx1iIDKFSOqau7so7U7+qPSyjv+ngTe8Fbkpjqcq5J1+dfCN8OGtRX/+gEeA/Pp4kv4ItBS7xctOgN2PxTuBKxkC8qxo969SzYT+DQTyCceDCSFiKml1P0XpCdXkeVXja17X5GL0Qu263k+LOD7osS1p8rG3bSQ/tVRehZbIyITQwoQp5EPBVxjb6YmBWUYTm21VFXcnSF/pMtUWPVk07clhr1rWm9O0gZC2PFLmS/FbZYjhfCfu3QpEE5ao8L9glRn6dtdHfLYkzzA9so6xMZqy8mQvc6f5BNaKCj+v3wdJT8wpwnjYFPPn2IAXRvHqwsMf33339RLhNR8cQnfb/yn/AXsw2V6sjKd1T6iFhv2fNjND0PJWtGQXZeD3FjAZDBpAGr+V9IMOhtkAZFsTT4PVobHT9iMALj6hjkLifoPsu7G95teAMJHMRUkvgG+sYgHMSPBBLyVrMsHm0cseqKnwO5XGf460INFqW/htYgpDAzNp1Find8WVhjFEWZ/lsXg0H73ExALyKyPTpfHImCqPnj5W/fKXr/owHYJPlBgUYgbzyaiVe41rvRFxzK7VsXddLhYDBWRYh22kR5ax31f10vOQntSyTYAZkbZ0ceH2l382ZssDEqvkRQlbNVRnnLx9DsemZuLsG/00YHD6W96KYbsREnaSn/WxdVz8PmjqWzQd/0MXJgZIoC1ffKJPPuEHP7xYkiFyxn/FZu9PQ/WoVrInktxLSILSugw1mztxHwACjbvPl3dJVLtNuaD/8vx2kQahwIbbNDP6+BmNIMMOm4f2op4uUcwx1qo2pkBS5YfaIxb3dk2UFA5xfdwBuXffpelhuNJ4GTupFt14OxbXsQ08nFR985K6vLjendV9VPHHWKNOflUMzcu1YsI/HoS8E+EdTHnvwhO+YcqxNeTGKCRB/IcvRqU/Q33X759SGa/j59W0liSiQ0OoUul3auTE6VL6m5gUkreEAIlaGLvGUr/1L7rVwqYcLgqt/KTTKrjajDVQBQSyzmrKYmpgnkRboXpCwvBJocN17BTxS4QWLqNjJ6s5nRgR0yaBlTyYGOlPX5tYuKPSCrMu0XjlhWeeMVat+8g3XeeGo3cwrZk4OSpS/6BSJBx4LB0tTLGEDGAxfOsVkdADdJTFMwMCS1guoF1apnmu7JlRb3IC9fcBP81c2SlW55tBrjIqUACpWjbZxVD13k/KghbGtg78QPS8yY3oiukzAZsuiKBJ+q3f7XM5am1VL9q2NMPtALaRPHBjeUL91mP3DbRyfJUP3FducIxNEB3Q5J/eqiL2aGo7ZHyeG5dQp5+5bKO2Z7s2TSsgekPGFs024ST7sgpxn5p8YvZ31Ve2RNLhQgpoX6RFZ9XGN1kMYYo3RVUz6dOkPxs7B36kNKQSv+00oSUz1TapNTen61P02IpO8j5RUfeJRxMJZCZCcwDZmUQiphmFdUNoeBVUbNJrgynTZKRkdQg1aEJBuFxGU3fowE3YY3iKLKiQxWainf26KljGnKEnpC3ql1dbyNpgx0o90SvCyjFlQmIeCqoyBHHtztYeSTN15qnePtK5foPZRfdjB0+E9pCfLGG+7QC1ySPmoyaNVXyRzOHulS9WdC++qf7U8Xzi5iqpfy16rwj8axWRk723zflayWy02htBahS+5jqqzI4GyUpHCN9Cnj5yCo8LJn/ILfNXZ5y/neQ821fK0zdJIbh63S8elT1SVCxm5I14sTU03cDfKpiIbAXtU37OO2fylV0K3jTpLhwsLESoez2gHqhTPSrhk6lbdvYY4+LUPbNlNNsCT3dS28ts8GpuFPIiSxMX5XsiWNVTJ+fAyNZquX8kuo7vQxTlyty8DJ0fcKj9XXTUyX0ocoOvfp20oSU5uQmt+v2jh6JkMu6SojFTEOgFyS0J3IZUCkFE7DFQgYN/ZykJOzv2adouE4MU0a3JIHzUAIFXAb3iCW0+ABiy89vBG+rOQLSBu0BpgYMw8yfULeGQY8jp02SmW8eT+UPqYXU4zev0HZ6Y8VSB8LzL8O0N1povY03CymMTax1O0RGXBjuemXl+wNDzo/XZb702hfsUHnjfRHJj/FZ010TiYOkkYbebLiqXZIO3fPYbCdpCOCQUL70ipqTpyTBn6x2eq52oC0toH6bg+jK50XmixrpEoXEwze+2g+rxgbr1S/zE1MVf+2NufZbW7qW0QG/SWh7+mfA6KWtxxXG4eZOVdHgjLM1R0zjaMv35yux+2mKYozLF4cw9lp6XeqN6qqmTztwqJmrpwzlVbbx21UAkl3CZXVDpoMR/prhv46dcWdZnFKrmQltE5Ddw75gp9wHKJVB2fdjTixWWdVX1v/o9/1mGpkZAfFpi/l90kbZV/46J3ZO9uK9730+rh1Lj2NLbj8nphmKX1wl3Efnq4kMb25GVMA5puLerOOzVaYswp6Js/yYSLlSFRCoTlxZdfGvPFPuJFCb6gIPyfhxiKnIQrVUuaXo7NrI2gZ3iCnjHKIgHSU8z1t2nrzn+mL6DaMWYTHid3lHKM92myiybvawW/vjg8EtwNEbmmTgLGh6NMU84s55p+7YibJJAq6Pa6bmOZuXy3+5RyTE71phjacvcGx7ZdLcVPjqXaIDHS6APXpMo7qWTIGrvYthnMiMVViyV3yejBaR+1gHPOvs2qS8NUlazTq4qwtXgTCzYpjTEk/Lsboks+v1UeS+5jq3099sakv7L/Rvj1KmQkXkmX0vYA05i3H1cYmBM7y4rbKTOLqy7rvXL+uZ8gSEUx9UTZaz9YJAmbMmkdWXGIzqJSHW2+cNiqzvyiZstpBlxnpr245gio72y4hjSbg2mdfbFb0EPfhD3KPBJx1N2LE3MhUfSs7tOEy2gfC7ymbh4y8RZA2Hx76aqMsbS7sYBxsJC7e99Lr49a59DS2wPJ7Ypql9MFdxn14upLE9MZ8TEWLqjdo2ngjljZcfjTGW7b1Nm4qRaISikgOZc+7JKwLcRoi/aOeybsGYqrIuknawlKM0I8BfDGDavpAJRjGDAPuxE64Dzg2CxgipAbVUlVVHBdkxXTUUc6sWEvbVjL6mjee9JvMzs9RRPBoduLLGVSnr1YQDa54V1nKL0RMC+KcNPCHtVGh+RjdP2gG1dUnY7EdDxJ0UcfUfl7PupjE/DnVykhuYpq8kqKLy/WZ0cfhXPJNydl88XZFc/SDgPwmzZgquxXRkaK2zCGLS4czZXHkE+gX3T6n2jgy2aDt/GeA3GLi59K69cZpozLsWiBeVjs429UtR5CnU1eS00ifcunao2dQI20YZBwPyLobS/VWFGlrjN8z62tlkPcrHa/0viFOrQl9Zov3PWdbBjI4xurMiacgcSSQWE4mPsXrFCl4xb6sJDEljImc6plT+rzyxiej4cQbtOejS2eT2n44Kp7wK11ryzgJfnuJSijycCi7dnDWb7GGTM6g0xCFMZNnc8I4MkRX7tEspLmMHMbRxCuTmFKS2CCVYBgzDLgLO/EWbsx0hBLmC+lZHJfxddZR4RsavIRy8sYr2r4JxUmj724rM4kdLzhRwjzmykiQtvnJhZlMGm/fwjjr2SGL9BmihUEncQp/Tg/FZY3EV+3oPK9Tb4CwZEzrYxLPKrrfIqUU+5LRxymzQuVo8p3wYuPsB1B3xVt11xWRs2OWK8uN6brDbmpBUj7lPgAfwy+0yTFc1hdJVNtW3o3lDX+W61ZAbK36u2yUa/bYLVbaZiAAGr/Iy0A+/Y3a6ZQ0xuxwMIsceyFzSy/rnvSCqOpm4pjzfFR3aVlP4y+NhfpEJsl065yz/TNETU6zjD5kFLbCP68sMb1JzKVxrqBCBzBr3yO7QPGWreJYBktHTVZCiuFSdn3EShn+x5izpszWNBwZg1baoKll1J/ScDsMzeUEHTp2yt6xrhNan4uTN9ZZsAmGcVli6tWXHuglMfPw5iT0qxLiJx6TQz7G8riodHKRN17B9rWwlV8XGPyZ5xgwR7zFCD4dnu06LoqOQ6Jzac0juqjAjHZyDdrFcU7QEVf9v3TE6Ql5NmjEk2eUo5Z8vT8HlqvAAqNdeTRdbClfzLBZREcXrI6scR0XJ6KYfVmnsT8z+riIXrAcOWi7jpibysswYn1d+dq7doPTRQPqUo/oy8tN6Xo6SbbhC74re936q+64VlrV71ULrd88RGZTRQZuvXHa98z+EkikNta6VoC0vhnn5qbIEeTo1BW37DLNVBwpWNrxEy+OCfK2ArLu7qMQZ0dNcRSifYi/3JtRSjh2jlyRrELyfqUxisZq03YV7BPOtgzKd43VgL68oVfA7z0tjRyvi+hDIOC9CzAxdTWpHqBi54wakZVPDhE27btk/CqCyyg7fo7QVofjV1754hB4Ori+TZt16CzJQ8PR22mIQimKEFPoXfbBYdjysPukQ7fJ+NRe+2iLg4jJZ8g4XJmWzAIxEgxjhgF3YncxQEscdK59TNWn63aOoHwjcHGMJg2iVh3pQP/yXy1xPEsEX0r6vY8GHfhPm2/EBQZ9dPfa4iKBhtkWeePlbt8Z+q9r4gB4eXi1PGC+JTYDlVD/oBHOG0/iEPehzLjwIaOdXMQUhXF26Mj5PiovW2jrQ+4jF1O0jfM/1WyJ83Yfo+1F0FFOJIp+wSAf5I70DT3qQmC+1UKLdjLbL6G6ro9q2FeHjB+fhS+V0w9ymVFcFLBHh4Jr/aGNd9mz3q6j2iIiqy+FytEvYtQP9uQB+/pSjvK2ux8sztvyEopHNfjGRSHVRyXUd33hnx0lpnRubl5bVkyH5UUbJVT+X1dcgDA4HBhHQbnQCc8zFf7pjskGfUwW/R7u0Nd5ufXGaaMy+4vOk4jYFH3hmkKXd6gD47W+OTd0uuUIcnSOB+lpwnpbZ3MHmboDou7/8+HTAfvP9OUx5hhgXQZD2QT1JZ/Qlhw7jrpo77XkbX6R2WFXuSPsP2mgtScvkiHfVK23dPlF+zw64VCkTzjbMhDBTUzxeV9eVvLkDbonQwxPehhkrY6kpQnwyasPgYD3LsDE1Nmk6uw763y7aFR9tFRyh15K2akQurbt0LymTl5FGbt2zWmIQikLEVNKlnitqRz8TdK2+NxHy7zWk3ZIPmnAPxxZV6cmGMYMAx7D7ucYnRcbWH+ib77RtzC10Q5uLjIJS4hDJPRtAD+4VtO8ulW2uVnHIJ26vjFyNebzJrrBbUEqZt54udp3gfGHFhpP9RWgkhxXXvronWtSSuXmjRfURrRz/ErSAabB5gEjbkY7OYkpJS+Es0NHfgzQfl2L7Ipf36qJkx8iciYssRs1MIKOcoxfRfByisFueB0wXR+sr3oUS9Y2MaUW+NRFU9zWI9uo+Z/ZPvJ0AhNvuumHrrSNXt1rC6K+Z/RxM5XYhGhcNZtaznyM3nZ4nXBwJWlKeYlXB6vzJWPElIS7Vl1XtRVtpG4rE9cvdxC99sBERYdV2ydNNqh622eaytRuvYnZKIqc2V+0POoz4QrKaB/Xadxy6F/dLzEZaZTLQNYVpEEZKkB1F5dNFL6SVG3kDK7o1Vd0x69ZtsskWzPYa6JmXkmtrvcefIuSUp02b59wtqXOxLm6KX+cnvjixjTxwvOojE7kgpYgg0ggNU0hfYhke6++MDG9V815XyujZrKcm1JknaULQQnRm5vuKx5crwABdUuPeUVr8BsHiiOQQkyLZ8Yp7jwCasnbXna/83KzgPcaASam97p570nl1KxYzXklpqpj0ZmKewLNQ6+G3EVtngLx0BG5Yv2ZmF4RwNVKnnQ5zGrVgqW9bwgwMb1vLXov6yM3PMTucdd11XdLr72JXC2of+bP+4qAdKfJPDXhvlb/JurFxPQmUL2beSr/6ES7ejelZqkeAAJMTB9AI9+HKk4P6+pgfLkpZfxtinHE+X0djQ/mwf73odZcB0bglhFgYnrLgN9ycT/GasOYOpx+rY5+gV3ltywtF/dAEWBi+kAbfhWrPTvtiGsiN9TxNJ7YcFUTO4uvdlXlKqLBMjMCN4AAE9MbAPUOZXm+Lw6jF7bzhZ+9i/wOic6iPBwEmJg+nLbmmjICjAAjwAgwAowAI3CnEWBieqebh4VjBBgBRoARYAQYAUbg4SDAxPThtDXXlBFgBBgBRoARYAQYgTuNABPTO908LBwjwAgwAowAI8AIMAIPBwEmpg+nrbmmjAAjwAgwAowAI8AI3GkEmJje6eZh4RgBRoARYAQYAUaAEXg4CDAxfThtzTVlBBgBRoARYAQYAUbgTiPAxPRONw8LxwgwAowAI8AIMAKMwMNBgInpqrT15QLzi8WqSMtyMgKMACNwZxFYXMyxuLyz4rFgjMCDRoCJ6Yo0/+xDHZ7nofnffEUktsWcoVf34NV7mNk/8feVQlVM8fIAACAASURBVGC068HzfIxWSuokYVkvk5C5t8/P2yh5Hjb/Hi9fRb4ha3ns7mDKVbdpqyd/ut1lYnoHO4lLpMV5G2WvjPb53Z41nR3W4e26KEu6IrrqvMyz5PKXye2epBGDaDEimYbj6hnBtHa8Hb0MJLgcwV+ro8f3kweQ3HrgRx/1tRLqH67winwHiensrIf26xoqj0tiEoMmMta3Kmhsd9H/5Kjr5QLT0y5aLysoP6KXTfpXwsaTBlrvh5gmDTWq7jK+Tkef6yg/pbQDTFZs/qSITRO2UWBl1t2D96iMyssWuicTzG95Nr6I/Lfe35wFpttdJqZO0PjhcgjMcfzK+4XENK385Wp0H1LN/2sWnOFMx3H1jGBaK6YbyLSUS/32eR+bHhPTpbC7S4nuEjH9OUH3j3VJLNc2UH3to73XRnvPR/N5Ges0O/zWmh3+OUbnuUrzqIzGNsVXaX7fEDPK3qMaOp8c7FQT02dNlcaRdq2CN/9N71KLpcpSxKZpYlp9reutPneaqKqXgtKTNzj+nlrktf5YRP5rLXjpzNLtLhPTpYHlhDEELo7RWvuFxDS1/Ji0D+PB5RzH2zSDUmDGNAPH1TOCaU2dbiDTUhb+7XKB8T9VeExMC0N35xLcFWJ6OUXvBfXvEqp7Q8xcM3WXc8x/Gggaaervxu7ZvW99vNny4NHsvk2wNDF1rowB+DGA/0TKtCquZ0Vsmiam/pmBqRGcnfio0Di41sTxhfHDDQaLyH+DYhTIOt3uMjF1QLn4NkDndRUbpFw0Zf+ojNrrfQzN1ZCLCQYHTdSeqLdLtQTinzjeEs98eF4LA3r5nA2x/1K+xYZkQTZS5d0EwAKTw1bw5lU/VIWKPDw4O8PPKQZvG8FyTOlxFc0Dh5ESBqWC7lcAPyfobes6GjM4Pyfo7zaM5aBweSZxaQfA5F1VvJnHlncCn1JDES9nGEbkraCx28fENJ66XS7nmJx00HxeCdqj9JjiDzA1jHB2+TrD+Ofi+wg9qvOWmkGgJannTXTPE9ajLmcYHfpoBPHV8tfRBJH5hSLx3odtTvpGeIxjxUsMhW+caie9BEdt3jq0BpkvXVSDJTpz2clobwuOPDgGRvByjrGhq7KfdKL9xMw/r56aacxwEd0k7AtgmuT7PDvvoqVnkEgvXvrof441jJQyrb3nA7SMJVaznzj7tFnvnH3ATJLLhpG1yWPrVLzQbpWw8XsTnVPTIOrSF5gc+WgEdjFcTh58N3tH3ngy3/nnPvzAblKeDfhHlr4rEYR+bg9EX5x93A/7qSZSSaSyCM5JecyG6LyuBbbYW9tA5XkTbeqbGqJr/NQkqbw7itqelDJoBYV8bMtZPrbfe6h7HkqvjqOyZxFTKvvnEP5vRM5aGJrNniQXuRWc9eCbbgVi3O1iFAPOGC/VWBK4Lyjb6RxLaPg97aCp+7OYXe5g+AMIbFqSfMZzjXlav1189LFJ2P01dLbLtdkVJVeS/EXGtsx+o8oim5HPFgCgMYLsgR4rg7FtmrrnhImpoXAUXJz5KAsyWkNLLG200aYp+mf7GBtEaPq+Cu9RFc2dLvqnQwxPevB/T3hLFKSyjt6Z9G3aeNGSSyAHA7URSJG23QFGe2WVr1we6H9WvTqJmP4cwRdvthU0D/oYng7Q260Jklh60YuQNyiD4g9GaG95WH/WhC/q2MeYilnI57SE03pPeQ0xPOrCJ5K+Fa2/BRvmX4YYnnbQIOz+6Mi0lP58qjqmquP/mnjzpIT15y10jyhNH93tBHmpkG9dVL11sTwl4w/Q26kKw2oazOzybYn19wWGf5VQelxH66CHgahzBw3C1Ctj/7OOpz6N2YbKK71k1kbrZRlvjgwLWjjeOmq7svz+QVO+cW/5GEXIusLwTx/+VgmkRwKToy5aallu/U9jELmYiHbo/EF1aaBDdRP/Ron+Y3lwlEawgTd/rqP0hAbdgdS7vSS5aaAqoKcW5OJrEd0MsC+AafACFRY+PawLPVt/7qN3Qn2hg6aYCSrDP7NG26DMEpx6sZhidDpEf6cCz6vAF7ov22OSNauSsw9oyfPasKLxqK07JDfZOqFvJdQPzRfxhbRf3jpq5NcodK2PrljiLGP/UyBhzngyftAOtHRMunZCvpTyRThm46BIRr2H0Yc6SmsbqKtl6s5AEekkUlkEZ1cewnfVM/rEEIPDjrAN63/0o+ROQ3GlzzH2i5A/UZayIV4D/Sy9g7SNsRn+PMQUwPyoISZ2cs2aLoZorUmb1hH2ZIj+QUOOxbGxR9vBDrov5Fgi0pBevKrIscEe+wBoPTL1WOjRWh3+Ti33qlIeYgrM0Rd2t4ljY1igJtByXItdUfrjJqbFxjaRR1q/MfiRiaHbFpBgC4x2y0IHwrp20XqxgdKWD//P5M3QTExVw4qPnwO5FF3vuGfvzLiXi/hxI/ot8UU/uvNckMpNlLfWUf/XNOQ6Q9XRtsoob/kYWoosYjmJqWE4rOWWxaAlOmgw40qZKINSpnJ2h/ElnI80s7tpDCBavryfI/hETPXMRCSZNogeXG/3NFMnyraJIKm3xQFI4Yc7m2JJtB+ZtEkrPyJM9Eu8AEDPFuxFN3JpOVsnkYKj+akZZKpPVjzxguNtwv9oVfIrEXIPm5GZkBDD6j80u27+aSNQQus0mpfbaJlp7XA6jjI/Dy5SoPUuOhgV1FNbHPpeQDeXwtQmpoKkeNjcsWY8LifoPvPg/eZjZMCcVy/koJY8Y+2qOj2Lq2hCH8hrw/LGE4RBDiDmCgX1wYFwETHqcjkU/T/mz2hXKm88Sqf7wU7cXs1P5axUVaw0hYUI/fytjPKjOnrfwudByEUq1Y+5cXbkMf2XyE0ewhdIcrXA9x5qZG/V7HCuzBYDtCiNPUYlJJb+6dZpMDmJKdlQId/OMCH36OM49sD0XzqNpoT2uRk3tIO5x5KLvpw0qVuTNQZRDFcwzbLi4XzElGQnffDgfzTyuCG7kmjjXaAmjG2Z/aaILaAqfyJ/eocNNQhr0koVE1NDZ6TCldzL5Ua85CAZa5qdsvz5FKn0Et+adUdLIYUuYjo/RtPl2C4EVG/T5oCrDcpvCbOfBQZ/NwZphEbXMcFwf+2i4nmIEGl3IeIpESDR6SN+Pmnlp2Tm/GmC7lPrjU7sqLaeudLmjQfVRk69UBuQ1nyMgpl6jWH8LVyIoY2vNVAlGi2X7OJZOo4yvwRd1QOf+XJSVE9dcuXWzSUxNfsJgPHf9OLj1lU5WBt2Ind7A8sSUxckrj6Q14bljSfrmtDWYiOX0WfzEs688cTsJ61CudshmJWK9BG9LOuhYa5gmAA6SKX5sx124axf8k17devEVI0Jpgy27LHvegww+2cskvHAVUbuPJQdsfqWkXt20DkuaDuYoBeONKn6fqlshj1uJ0gn80pwqzPTOLC7KbtSzMY7xja90uAl95tCtiDou8aLq4mNHqsSdIOJqQHWcIdIpfIFNZ4XCToVRClodBbJzFV1NCKM5mMzrPKI+LWoZy3hvGpGprDuvAZJVgYl8fw+vVy6Vk3037JLiX5PIzRKnqdd2HN9Io+CgwVceCCt/Kik2d+UvGbHUTMA0hc4JYe88VSdk/KTumR27AwMMUXvfzSbF9Ujp06miI8MHGV+Sf3E0QZF9dQlW17dXBZTs51130nSVVWfgBDkbW/qlXSc2nVtfnL0gbw2LG+81LZWWIcrJHopv4TqTh/jxKXivPGUPie1A812iVkp5Tev9EbKnPDyRnGuw9a48lBL+d4Wuc1M4ytqLr2+yjNbD/PkFWuzjESqjLCNQ/wiz5zZXAMxdeGc1T8dadL1PWFCyVkn3YeXIaYZ9ttuzwJ2pZiNd4xtATFN7jfFbEFW33WTYw05E1ONhFb2nG9NIJ8x4T9UMTbNELFNnjGNkMqgXAq4FSUSxTEI6Tc3cyNFPBwnpsGAGilAfaHNWfoYEfLP2u1hlPvMRQcpCcrIqKPDmIikyim+s91A5aneNKZxto1DWvmBIPEAbWR7T0erVIxNX6oMk7DYhiOek3xSMF68zcL6RUlMBoZieTWuf8WMFlUhHcf0/OJpC+tpEq55dFNhfzVMVR1EXzbbIhoO+lHe9l6WmObuA0o/Mm1Y0XjResewNWffxGYU6TMuzsR84aN35nB7yRVPtYPZBy3d0Lpl2tZ0/QyJVdB+Os/cOCfnsfjSEz70AiPag3Bwg2d6FtA7XUVNyrNJpUrhKiMvuVUz40nLtYFMKjD/OhD+yLWn4UZXrWvRtsqwg7GxJFvfM3XGENalc8bPYVCs8hgrCtqu3oBdSZQ/79gWEFODL4Q1CTlKhuyhXmX13fQ2ZGIagJ+tvEHU7300aLdzsElohMmPOeYXcwz+ihMD9+xekFvY6CkG2JWH7iCNf/SmFtfnJHS6j3VYU4ZoWO7m0wPMOmoHY+fuwmiqOCkJf09XRG0wIwbocoq+OJ8v3Ewx+joTOM9Prmcpf3HWFhuNwk08Y0wvqC3H6NLso9kmLiMdVjAMFYxX2VEbzYLNSWY7mhuVMjC848Q0t56GSDpDqbqpsL8apkqPn/pqA4/ZHmF4pHeZ523vZYhpoT6Q14YVjWdunAvrLzfSDTH84nCKFy/uPmrqVIj15x2MIxv5VNOmxssa3NyzV4mDtNYmlx0shHMyMdVFEMnqqI043hXO9JR1ib4YBCRcLVl7OX04hWza1eY2fEyVfCXLT19jFH7SDDptWqKNg2250fDTVNr5z13hpxoZF7ImcmLtm63vmToTCqtWPexJESOCCk7e0UZH0z/25uyKS/5CY1tuYprXFmT13fSxjIlpoE96Oj9piVJHVICutTBwGFq5ZGC9daiBKzAoOqvgM72RRDRXHuqNzL2UH2QeBmIdNvwpMTQfq8ObE/zMIgmVMpozKMHvGXV0yCaJdwnO+qm6RzFNKz8QJAxo38BnXUwCP079s1qKMImpMrRJS+86JW3YIH/ZzHgFlmpk3gpDa6k+KPdWl/ItHQ+EcLRBUT0N8soIuHRzWUzNdtY4piwhRyTL295LENNifSCvDcsbD0hfAo2g4P5Cx8W8b7gPeTdTOONlLQemLeUn6aebVBbD2Z2HWZ0gHJzpmeAPGUR0B6b/Zx3ivtfGsd7Qpe1X0p4BZ5bKhiT67ZqJjE2L5qqZstXh7JiZJgzLTYie236H0UCTLnR8lb2JTURR/flqxDRbj53jtimjEdYTQtGxx4ggglO5STLiGpitz5FcCtiVGDHVupF3bMskptkYRmTPtKGO8dXIgImpAYZUuCwClvYmoPwm7KU0F6k0yl12KR/KgTjprLRIEfTFQf5icVwPnMbBFdFBSoJoxYmp7Gymj2WQGeTbqP3WmlZ+mDYIpRlYPbNgEhbd2Z2blYJcgdzxlNP9sy5cZzUYOapgxqCiHcpvZfNT0sDvaIOiehqvePITWzf1RoaimJrtTJuf3tLmpyq6mgQkS5C/vZcgpkX7QD4bpmcas2ydPvInftJDGhzx39IHoTB+PF7aZpH0zU9J+um2g0VxLmRLnS/RYa2vEhr/LY/jcZ/24s6ZNrEkEkEzid69vcw5ppSWzgG3Tq8ws9fhNKKnN55dlZim94uEcVsLaH2myauj6iOhoqeq3JxdiRHTomNbDmIqj//KbwtGuykbF13jqwYPABNTAwxcHKNJnanejZ7/acbRO6mfdmKzbFoZk3blJ79hZZA2Kt9JbvUbbRn+R8dyGqUzZwKXJaZfOmIGMHnzlgZohLbArxc9Lkv8nFFHh2xyUKqg80Xnrz610aOjOKxd+cnlW3nQV7Vb3PtTHsYdxtBHL1lL+WK3Ng0Em/BPE/BWmcgBIzuenFUoJRwjZrWfXsKiw7Ejx0hRoVrmuOEY7ZGBcBP8sM5mKK0d9a7npIHfQUyD8xBz6qkpSlbYoZtLYWoRU3l+rvtILCGS2a8K6MXsgzz+Jqq3yZUs3Ady2TAgn60jtaLzJT14ScfYEQ4WFrHaXE7QoRMubIJjR3TFU3aBju2y7x/X57DaB8XHBmm7nOuwNY487GL098XJG+sovAXGBw1UXnbk+dE64jKf+nxgbx2N9+4LB2LZBmfupqS5ws1P809d6ermOc77jQkDyN3eHt6cGOevUbygbqafJv1QfCzRLxLOI+7UYfixcdshqyhdbGC0xx4V2Zj5pz4TPYdan8t9/XYlpvNLjG2xPOz6F7QF1D/puKj4WKWPAYuPr7pIJqYaCfU5/SCXnYID14+6aO+10NhqoKeWM/RbanBorD7Yd62O1jb5lViDtpNUmgVndDSKmpTHzxHa6vo3OtibDhqmQ53pUoAanZuqb46iPLKM6fk+Ki9baOuD5umw/uDQ9Hbk3EZTejMssSmh8v+64rD6weFAzQZm1NEl2+f94LIDP3KIewn1v1qCLNsDfHL5ppQ6TEcyyUsRKq860p9QH1a/1UKLDki2CUuAtz70f4DeQVteQmD6UuWNF/i2eeLSgTZdbKB1jm7PibhFKAxfttAyD9gPDjx3GwEoHOn+5i4dFH/SwyBjJjANx3QD5iKmcpDJrae6eczPIrq5DKZ2O9OOb2ULhC/5Hh0Y30d3jy5ToM0ZVh/P296aOD6qYV9dMHF8lvKSs0Qf0HKn2TCCNm887atGvpLNnQ56J1rn6YYj84VnhP0nDbT2KI70RR0ctoNLCdrnmnjkjScVQMuZ91KOdP1MsINFcXbYq9lREzW6p15fThK5PMQ423rWFzcq0cYe236ZKp87/P1YXh9KG1Mi996TXaqJDZ2xcn6O0VGbXMVNgTvaZcAPb0Z6VEPnk24zQxpVd48uPNCX0NCncVc89ZlO0s15RlYiqPsE6Ze4JGaI/vuW8E8u/9US549GxrFliKlxXmlMj5Y8YL/6WmMmP8VFNPQS55Et7zhurJIV1/p8nXYlrvPFx7Z4HnZD0QVEck9Gti2gtOFkSeA7rLkSH7AfBzfribz+ztgZqK5GE7cjUeLLOUbvm8G1oXTtXPW1vIpRLj1Yg1YSqQwEySBtFC8tj9hViB7EtZ3bXUSuAXQY00AECvwYoK0Mmd4Nub5VEztLpw5/2kha/eVyisFuPbg+dH2rA3lEfUYdE2Sbn3dDQ0nXvtJViB9ngFoKiBncxPK1gNaniB9e56qvA6Ur7YS7gIOwgHYU03W0+po1fR2tvllGF5E7nrp2VV+VpwaY2us2ep9M0mJgmOdKUi0HGeUTH3V9JeajMjqRA6uNiDqYgmO6AUsgppRvXj3VMpifRXVTXy9ZBFOzPBUWm1jM64nVdbXOKyZztvfiUxfNZ+r627UNNP9z7Fo3ZCncB2gxQFzhmWLDdP1yxsMPeW2vvgJX7LgnEvp+YNwiNsNgz7ymWV/n3MHgm0lw8sYLQXBeSXo4ct4Nn66fCcSUMCtiaxz2avG5L15abIz8mJwz9Ol++0dvru8udXH1YztydbMgSFsVkB0ZmD6iGlY6heC065S59X5otKtOoD41MbV3aD8qi4mNTqy+VnrX128Dx5WzdMWzXGa/DmJKxSZdSSov8LDGbZecgTtOdEOaxrqx3XGfQmHldd12xanzBcc2Zx6W3OJrLlugEgq9dF1JqvzDXeMrL+W7UOdnjMBdRcAgpndVRJaLEWAEGAFGgBG4AgK8lH8F8DgpI3C7CDAxvV28uTRGgBFgBBiB20aAieltI87lMQJLI8DEdGnoOCEjwAgwAozASiDAxHQlmomFZAQIASamrAeMACPACDAC9xsBJqb3u325dvcKASam96o5uTKMACPACDACMQSYmMYg4QeMACPACDACjAAjwAgwAr8CASamvwJ1LpMRYAQYAUaAEWAEGAFGIIYAE9MYJPyAEWAEGAFGgBFgBBgBRuBXIMDE9FegzmUyAowAI8AIMAKMACPACMQQYGIag4QfMAKMACPACDACjAAjwAj8CgSYmP4K1LlMRoARYAQYAUaAEWAEGIEYAkxMY5DwA0aAEWAEGAFGgBFgBBiBX4EAE9NfgTqXyQgwAowAI8AIMAKMACMQQ4CJaQwSx4Ofc8wXjuc3/ShvuZcLzC9+hYA3DcADyZ/b74E09K+t5uJijsXlr5WBS2cEGAFGIAsBJqYmQj96qHse6ocz4+kI7TUP3m/7GBtPiwWXubHHXe5o14Pn+RgZAsw+1OF5Hpr/zY2nHFwVBJZpP5ce3PX6rqLMdx3T3PKdt1HyPGz+vbwVg9M+5paAIzICjAAjkAsBJqYmTE7DO0P/RQmlF32YdNVMlh1ehpi6y3UN7ovzNspeGe3z6Kzp7LAOb9eksNmScozbRyCp/dIkcelBWvy78NsqynwXcLsWGX70UV8rof5heSvGxPRaWoIzYQQYgQwEmJiaADmJqRlh2fAyxNRdVv7BfY7jVx4TUzeMK/80vx7cnaquosx3B707IMmN2cc7UDcWgRFgBO4MAkxMzaa4McP7C4jpxTFa5ILAM6ZmC9+b8CqSvFWU+d4ozHVU5Mbs43UIx3kwAozAfUGAianZkk7Dm0AqLxeYnvXgv6yg/Ij8Pj14j8qove5iFHP1NPL4OUF/txGkKT2uonU4xjy2KcFIY8joHNzPfFG+fyYjTt5VsU7y2P/qPcw+7WPT81B9PzVyNYKXY+z/5sF71kVCDBl5ifpX3k0ALDA5bKH6uCTki/rzArPzLlq/bwh/OM9bR/mlj/7nGKCGwPHg4tsAnddVbBAxD9plH0N7FfPHMBKP2qJ5MMQs1hYABMYtDBbA/HMPredlhXEJG7830floZw5AtXVF1VXU52kDrfcDTE2vC6v9zBrNTjtoajzWNlB93cHwB+DUA5UwL4Yij+0BSJTZx300ttYlXvbLzM8pBm+jOpuIE+W1hMxmnUX4co7JSQfN55WgHUuPK2jsDjB1tQ9pVs52LxJv/6XVzqeOdiadPvLReKL11sP6VgWN7S4G382GzhtPojH/3IcflE95NuAfuWyF0oe0tnTaNgBFcE7KY0b9qBbYNG9tA5XnTbTJrsUalh8wAowAI5COABNTEx+n4XUTRCyGaK2VsPGihc7hAMPTIfoHDZSJCG3tYxwZPFUeT+uob5VQedVG72SI4UkP7VcVQcLW/zy2jLi7XCchsYjN/MsQw9MOGiTLHx0hG8k3PJ/SEIru0xTiqYirTRhNmER4mfrvDjDaK8N7VEVzp432Xhv9z+HAPT2sSyye+xKfow6aT4jAluGfhfFishgPFme+bINHNbT2ZBntnSaqz6JtouOVHtfRet/H8LSP7nZdkqAtH6OfRqYUFBhX0H7no7xWQXOniz61+fsWauLFxJJxMUJ7i15Wair/IYZHXfhEmG39sNpPl6zxKD1ponOk9OV1Fetrdfg7tdgmOEqn06znwFDoUr2H0Yc6SmsbqG9LvDoDg3z9HMGnelCdDwinAXq7NUHKSy96MZKoyy8is65v5PNbF1VvHdXXPrpUdyp3pyr0o/TK7iuAbk+Bd452zxvPrIf/nIh7CfVD85VtIXXaW0dtW+qE0CXSucdl7H/StcobT8bXOK4/I4I3kLaC2t7z4MI9sy2dtg1AEZxdeQjfVQ+Ek5DzdIjBYQctItR/9C2bprHgT0aAEWAEkhFgYmpi4zK8cBNESrZwcKXpv7RDvoT2uZmxyoNmKv+hWcPon07TOjUzdJebh5jK3EfwiZjas19EXt5X4Xmb2P8clYO+jd9uwvMa6F/Ef7OfFK7/VhnlLR9D1zSKGCA9bO4MxQxeUNblBN1ndCqCj5EJTxDBCPwcSPeFegcTm1ga0RDE68aIFQ3UdDJDSc0+BckUefTW6uh9D57KgM7PJEwfaRZ70yAmVhrzq4uYXvTli0U9mfzZpzNIkpEfQ6FLv5VRflRH75spkA4vMPyLXgzidV4MWoIkRl5glpFZF+X4jOvXAsMd0s86+gZ3Dtszb7tnxBMvXR68GPYLDLYVHj+UwJdD0c8232bsds8bj7L9SqRctqO9kjI/9eWKh1h9CEHLbEunbZPpc+PsyGP6L70g5bMXobQcYgQYAUYgGQEmpiY2DsOLFGJqJg3CX7uoxI6c0sQ0wYAvBmgRiYyQoZsjplAEIjaYXo7g0/L3VWY6UuufTNTGfycT4vl/TUH2tatCgLUVEKcQeCXki5ciiyDndfQ0+aByFHmMYSZkIMJiHeN1RWKaWhftbmEdG1YUQ/mS46Fx5HpTADA/RpMIkpN0KZcPcg9R7bCMzFYTZn4lQkzuGWYbp5Zr5Jg3ntS3BP34LF1hAkKel3DmjQdalifym2ArMEf/D5rB9jEyVmUy29Jp2wxwrKALZ9eufCamFnD8lRFgBK6MABNTE0Kn8XYTRDNZJJyWR+JZqKqMyO/ucuUAFD3HVJMmc7AGkmdMkTC4UT501uGVzkO9Sv2fdhGfTw5JYUAGIoCHX4Y7RA6lH2j4NB7KjCdIpYcWOZTqP0VMI8/0b4JMWMRUL+WvVRP9AoPkjhnTdBkdRFi/QBXAUOpSE8cJvFTrlbvOSj8Nclxc5gCB/IHCWIVZp8sXxpO4JOiR0u9wJUIv0ZdQ3eljnLjSkDfeFL3/efCS2pFWPMQsZQXdr7bMKW3p7Jdh+ljIgbOLmEIt5XtbDXROp3yAfwxIfsAIMAJFEWBiaiLmNN5ugkjJ5l8H6O40UXsabtDQG46iJCo5D128HDRNwulOcz3EFFic0lJsCab7gJipWWthaPAxLZ/r8/rqr0g0zRqn/ItiaksUJ0p2DPk9Rzw1KEfKcw3URgHOdpkNsS/8EmmGawP13R5G5iysTh/LO1vGeHnFMYznoQVSSNE5uCntIX/TOruMzNHyIt/U5rrOdgOVp3oDUqgf4UtYdrmqNujVrZeHSIH6i84vLMuJgekicznD8K30uyU3no0XPnpneh5Z50sbjfLEU+1ozEQbOYignPmNzhpntaWTVFJuuXEGkvJYfOnhjfAFJ59q2kA4wCTpZceuDH9nBBgBRsBCgImp2ckoCAAAIABJREFUCUhuYkqzH7RpydjI9GmK+cUc889d1JKW8hMHm5QZMCuNcwCKERuqVNqMKQ1Ictm+9Jfy6VR+dcF3E5dY+Lrrr2R96osNRWKjFm3Wsv6NIjucbaE0odBEyf5df88R77qIqSpy8X0UbBiinfm1g3HUjzbWftkyxvWgOIbxPDRG8lMToMY/8bYI22aiNrgsI3O0vODb5RT9P2ijUbihaPR1JvvXib2Un12uqk1BYkozgCn1/uJgXospRoe+2gznYf15B2OXr3NqvFskpoVwTiamut3oRbWjNnPSZrk3/5mbxHQs/mQEGAFGIB0BJqYmPnmJqVryrlobEERW33vJxDSyVG8WrJbvIr+rAfemiGmw0UkuWeoZ1HAmypTPCi9bf6suYa7Zy5dh3KSQJvcJS7BGsswl3ZSl/CR8skieKH4+RlcQLst/MUZMgSwZ4zPsxTHMlNmFg4GjHSwus52D/K59QZ0uBEqmsB3ytnveeNnYu6U2nl7OMX7fEDvo3f65Kq4zXnY7Ji/lp7yUOWxbMZyziWmAwI8BfDGDmuQnG8TkACPACDACMQSYmJqQOIy3a/OTnkkKB8cwE71pILIMrP3/kjY0qE0mt7b5SYurNioRARDL+ESMjQ0VOpr9uXT9E4mpPg2giq5zd7gtgfu7lMsifY6oqZtbAsLu3vzkanMqIpPkaTlcLy4OYppeF3Xkl+HfSdnLExXyY5gps9okl28WHVhGZg2L+SnlsvBXESbvKgmbn7LbPV2+UIL5UUNstjPdXMJf84YUwUzReZlTPF7aJrYk//DMtnTYtqI4Jy3lOxGJvUA4Y/FDRoARYARiCDAxNSFxGG8XMZXExsObE8sZU5/5mLSU73ko746iy7iCUJQdA+HVZ0zbtMM+dWCciqOYSju+2I2fOrtj4LR0/dNkUcdFuc5oFEXnIMy4OEZT1NlxDJQhPxYj+HSJQN0R73sP9TUPsbMyHeTRzDKTGOjIXzri1IbIBjNX3koXXXgsPsojg5KOi3KlcWGYLbM+LqoM/6Nj6ZoyNdtlGZk1LsanJGYVdL4YDymo2oZ8PiMvCHnbPW88fVxU0tFmVGez3paY4uvlBB06L9g8QixvPIUjHZ1mHxelz2st/x09niqzLR22rTDOjjxcVaJni5M31pF0C4wPGqi87GBsmc2kPPg5I8AIPEwEmJia7e40vA6CqAe44NDx8KD18l8tcf6kc8b0Tx/+ljyUXxwabhywHyesjnKTZuZcxIYI79+S8Fb+XxcDcfD1IHabk5wdoo0e7nNNTXiC8LL1TyOmtNv4g1z+lIef02HlfXT32mi9pM1lKcuUgWBhHuLg/IMeBkddtPdaaGw1Isc/Lc7aqBABDQ4GH6C31xTPvMQD9i1CZJQbIwbn+6i8bKFNMghfRTP/dvRM1oT2Cw5Zf95Sh8zTJQC19AP2C2AYk9moTxD8OUJbLMuSP7UvLpOgA9Tp0oLa1jqiem4e8J9f5qAsHfi8H1yS4IvLKzR2JdT/agliHyGmhu5ktbvWsax4Wj/ExQI7HfROBugdtOGLG47M2dwR9p800NqjONIndXDYDi6GaJ9rFpY3ngRBy7lut33aAfvWDLqGU3y6bFtRnB15zI6aqL320RaXVFD9lY4KOfvBUWKY9cX5wLGXioiQ/IURYAQYAYCJqakFDsPrmjEVSb4NHNcFToKblaIDtiSZ9Q+z4JpKfY3pTVxJGlTpcorBrrrNyKMrDTsYBT+qgD4UPesKUjvdEvVPn72VBYgNFOZ1onQtacHrDeVVjsZJCeqq2NhMjfNK0gGmrg0rCeRRwxIjeT8GaL+uIbyOlPCviR3LsfxT8k663hNiqdRN1vNiGJNZV8b+vJyJTT3BlaVEOuh60NiVmzLhMjLbRc7Pu+FVrLTTXV/7qs78tYkppc/b7nnj4QdtWguvYhU77omERq6UnWGw10TNuI5UXk3cweCbJqUkXd54IRLOK0kPR84rczPb0mnbgEI4O/JYfO6LF0dtzzRGfkzOGfovSvAevcFx4pFaYd05xAgwAg8XASamD7ftZc3VEnr1Pe+gfeiqwPVnBBgBRoARYAR+NQJMTH91C/zi8qWfmbk0+YsF4uIZAUaAEWAEGAFG4MEiwMT0wTY9oDcLxe6Ff8iYcN0ZAUaAEWAEGAFG4JchwMT0l0H/iwr+MVYbodRB4Gt19F23Ef0i8bhYRoARYAQYAUaAEXi4CDAxfWhtf74vDv7WVycOrnBu6EODjuvLCDACjAAjwAgwAjeLABPTm8WXc2cEGAFGgBFgBBgBRoARyIkAE9OcQHE0RoARYAQYAUaAEWAEGIGbRYCJ6c3iy7kzAowAI8AIMAKMACPACOREgIlpTqA4GiPACDACjAAjwAgwAozAzSLAxPRm8eXcGQFGgBFgBBgBRoARYARyIsDENCdQHI0RYAQYAUaAEWAEGAFG4GYRYGJ6s/hy7owAI8AIMAKMACPACDACORFgYpoTKI7GCDACjAAjwAgwAowAI3CzCDAxvVl8H3Tui4s5FpcPGgKuPCPACKQhcLnAfL5Ii8G/MQJ3C4Gfc7DK3myTMDG9WXzvbO6jXQ+e52N0ZQkXmBz5aGytw/M8eGsbqOwNsThvo+R52Px7fOUSri+DGXp1D169h9n1ZVo4p+vDvnDRq5vgRw91z0P98Ne13OxjB83fN4Ree946yn/0MV1dRG9X8p8T9HcbKD8iu+Oh9LiC9scFRnsleN4m9j9fQZwzX+Tpn+XPg/tgfqw4ponACO01D95v+/iVI1th/Z0N0XldxQbJ7nlY32qgf4dvfWRiauqcGvy83Qy6toQhNIu5C+HCip0g9Py/phioyy876J8OMTjsoDOYAV86qKyt483/zRNS/orHTEx/BerXUuavJqaf91EmQvW7j97JEMOjLvwPv3JouhZUbymTOY5fEQEto3HQx/B0gN5BB4MfwOSfCkqP3uD44gqiLGGPr8v+XUHq+5X0cgR/rY7ej/tVrXhtZui/KKH0or86kxuXY+xv0aRRFf7hAMPTPro7fYzv8GomE1NT85iYmmjkCNOAQwrvY3SHlTysCBPTEIsVC/1iYjr+exOe9xAG3hvQi/kxmkTqs174ly2aiemyyF1fus/72OT+cX14ZuRU6MVKtM2vXW3KqE7sZyamJiRMTE00coTvBtHLIaiKcjfkLWRU8lfufsf8xcSU2+wK6nXTbcfE9AqNcw1JLxcY/1PlF7drgDJvFoXs0RL9I68cNxWPiamJ7FWJqfDjqAV+VMLf8nkT7cMxYgvaP6cYvDV9rqpoHgwxs2cehUwVdL8C+DlBb1v7ieSbvZmdGn5xaxuovu5g+ANIU+zFtwH2X5axTj6jXgkbvzfROTV9+xaY/Nc2/O2k34rwMdWzIs7BSBLDyrsJcDnD8G0Dlce0xOfBe1RGY7ePyU+zQcJwtkxhXFzOMTb9XlXe4/k0l4/p7LAu6p3os6bqZs4ALb6P0NttoKJ9bckH8XkT3fNYyzuxl2UmtWkKob6cYfS+haqF4zheLFBEPw04dbBwHbcHWFBbHLZQ07hoHTTVSRdAn/NxxBeRfKH8ozHm3wv4mApD3MKA9tTMhoYuWz7VOfrg/KyLVtAXDD23/ZRz5CWqmbc/527X5fsUSOaDZqg7Smf3I32d7E5OW2W2I4UXExzvmfmH+Om+lab3uft8ysBbzP4pf/kn2o+YfPEqaGx3MfieY4PW5RyTkw6azyuBLx/50jZ2B5gua9dz64ENvvpu9IX55x5azy27/jGpIwLzz334hu4HfdGsy3yAlrY9YryIt7FbMkNvscDkMLRhth/57LyLlunb/dJH/7PLwCXZjwkWkOVF806xqyR0yhgW26dg4HxVm2PiVUx/zZQALkboboccQ4yzoo2sccYeL8kOJGKcv90saUDjct7+wcTURE8p4lI+pj/6qK95KD0hIkp+HNLfUgxqf/SjxPTnCL7w+aigqX2udmuCCJZe9KJGTMnkD0Zob3lYf9aEv9dGe6+PcYatnB7Whf8nydQ5GmJ40kP7dRXra3X4OzXn5qfFmS996Yw0/nPa2FRC/VBv9Vhgej4Uvir+Uw/eU1/4l1Kdh1+UwUjr1H920H1RwvrzFjqEFcn1qiJltetP41sumXRDLjDaLUsH7+ehP2DrxQZKWz78P3Nsfrroo5Gy9CgH003sfwrLHP5VQulxHa2DHgaEw1EHDWpjrxzb2OF6KUgboKGMaswYXk7Re0HEfh21XVlu/6CJCjm4b/kYmSS/iH7qakU+Fyhcx6dtdHfLok/478m3sI/uttTzmHxUlu4XZn3et1B/XEJ518ebvJufxCBRR++M+mQJGy9aaFOfORiEfmG6rLX0Pjj/Qno+ROcPassGOtS29O98iqD75cxLwJmnPxdpV60bBftUBOttsif0z0fz96qh10abZOAUURX9ZTHFSPQFHxXPQ2WHdEDiN1E+pUl6X6jPJxDTYvaPNmKR3VhHbbur7Bn54hGxLkcx0fWzP791UfXWUX3to0v2lnxpd6rSrr06jo4B164HtjDqu8CmgvY7H2Vqwx1Zt/77FmpiI1oZ/lmgyUEmGjsab8R4pscOsoumjVZt3N+pwPMq8EW9o20cZBoJKFK4O5C4P6qiuSP1sP85lCeQI7DlHTSfSH/lmNy6H+a2H9dNTK/H5miYdN2LjN86rfi8mMj+9k9DjIeNf5TtOh1hqiE2bE31dVv4zw8O22g+s8d8nXO+dtOxI58F+sfKEtN///0X5bIkIPRJ36/8p4zFMsR0+i8RvQb6mU78coAX/mrfoxIvBi1hxCJvdUqm8lYZ5d0h5ubbajR59JsiV0Rm7Ld1rfCxXfmLIVpEamJpFhhskzGw3rT0oGjPHpEkSu5IXXR8z0N5dxQO7EryyTtaDrJ26BaV6RP5OnnY3Bla+YeENUbwosjRazf6REScvrOqY9KuTLMtFrqnG5mpWb7SXnQz3XUR0+l7iZf/0Sr7Kw2QHjYNjPPrpyG/HSxcR2sQU/lpPW/+F531GL8lP85NxOoTDDg5/aTEYLyJ8tY66v/qlymzMgX7INJWGArmlaM/F2nX4KWlSJ9C2J87XyzdMWFCwbpF0hpfnLZA/u4kpkX7vIuYFrV/l0P41GfeXm1DW7yLLDDckf7JfXNy8tr1wMDbDCpsPNqYZI03+DmQ9t4mzdp+7MTHm/mpL+xrlVa9jD9nOxq/x4PKjtK4tuVjGDUFMrogMg5bfjlB9xntjPcxMtS3uP24bmJ6jTanqP7GAQ6fuPqH+lWPuf6p1QCXc6W3VblaG+SWo92CuPFA3v6xksSUSGg4LR0uHVyZnCpjcaPEVG0EcBvAMfZ/s2b0tEw2EYq3eeSJNBQl6CWzyI+0S4/KsY6Loh32ghgGM4FGKqcDdUrHdg5GKn4Sgf/aFTMrJpktKtNo10WgVT2Mzm6OEUYtg6As14Gfqle+Y7Am6NKMskXcr4eYqja0Z+NFDeKb0q6FmAbomIG0OpqzykaaxQAtWlLSbh/0k9jVG8dKp5ofybd+Uzf0b7FPPRg7saH3DrkZJ3cfTCOmRfPK7M/F2jUkpgkvxY4+pV8aTVeUGIb0oGjdnJkkvaTKyC5CU7TPwzHwFrZ/10RMXRDQixiNVxFbfO164CoZ0Ni4dZ1eUOLjgLShCfqU8NLuascEidRjPRYk2AgAcsOhW46YfV7KfqSMXyRl2hhm2XSNs3dNNqew/qaB7egfIrrGLElmNV5G7UR2u6WJ4vrN1T9WkpjqmVKbnNLzK/1pY2EOmK4MXQ2tlkq9LVrumyYfLK/StoQDnJ25bnTDF07JlI8IhfkNd8jgKD+78LEKJRmklDRObFI6dlqnftpF9H1bieVII0lcQj1iMk3R+x+5FiTkDzeJisFDDxR5inZKQM5mKZ9fZ0LzoRufayGmqu7CX9csUoVlGcYMd179dOSV/iitjgnthpGYnYoQ0+891Gi515qJCcp2EazgRyug+pg9IxvEKtoH04hp0bxUuyX256LtqlchknRe5Rch9B/luZ9uGxSgFJAadzyHrTKSRoIuGVQEF6Ep1udD8mUSv+L2Ty/ll1Clo3QyV74iNUz/onTElE+TnuvTgwQRUvXTtRKQZUMB+ZIbtYGudkyQSD1W+pN4Hqj6PUmvVb0CvV7KfrhtVyC3U28T0ih5rsvmFNffQOp4wKV/FCsLM7h0Iavd4sVnPnHIt5LE1Cak5vdMENIiKEWMDJiu+A4gKdriSw9vhP8LbeahzUwDTKwZctmBiQCm/YsT06ADuuSJPVPKY82ImtHi5EinSZPLmuXSg6L99kgFFenUWrBYmqIyKcLjkkeUofJL/F0LQp9qGXOthWGwXDSVS0jPuvGD1S8mGLz3xcaHYEOXbmOrvDj2QLphd8itdDBdjwximlM/TQRi4SvWMczPQUxVfRL1PKYbYW6xUEL/1PEK98EUYlo4r6x6FG5Xh27oitKnozwtc4QomWlUWMdL1zHDVjnyEI8cMuiosgxTT4v2eRcx1Xkky+bqg3JDpvKBpk2fL3z0zrLWVnRNaNZ/gelZD53tBipP9Saj0J5G8E7BRORYWA8MOcxgRl+I45BlQ7Wtis4Ax9vRFMIVztBb/fKqbWjCZ2AvVD2D73aRTrwzZCiSJgPnYn1pSf2166y/J8mWhZke3yM8IgMzXabrs0D/WElieidnTI2GmH8doKM283hrFbz5L/Rz0woaOiJrh2TzcxI6yjs7h1GYM7iMYus0xgYPvdHD/NSbm0S5KUrqlDslPuUXS1NUpiyjmlG+heXilHx+S2idKmaqfJ6q78P2pCSLs7bYcBRufBtjejHH/GKMLs3g3iAxNTeU6I0l4afh5G7ULU0/jWiR4HXUMczwbhDT3H0wBzHNnVdMx0NUREgNFvnbNUOnHeVpGxQhSpYY9FXHy103Rx7ikUMGHVWW4SKmBexQbODVdqMgMdVC0YaeQ19tDvKw/ryDsbmRUMczPy+n6P9BG0bCzVOjrzPMyQ6cJC/lJxKpwnpgCmOEY9gYvzn1OsuGhnph6k+8HaPlxL9l6K0mpubGWnMcUuGRPi1B1TMRT6cOZshQJE0GzsX60hX11wY7SbYszK6TmBbsHytJTG/Mx1R3Bjrmxm5c47vLJ8L4OQz+GMAXM6iGn0zeZTSdi7Nz6B+TP9OXAgD5e9RwZ6WJl5bSsZ1yp8SnzB1pisnkWnowpVa/W0TRjBEJKx+c0l9yI5VcxjcHUcM38lkXE3MzlMjIXV58lkIbeyvvQBhHPpnLMEHi5IBLP12xtS/SFesYZu0gpln1Ub8nDjxh5sEStDlwmj+jaB90DuAqx6J5OXQ8IlsWDpHI9KV4n9L2y71EbxRQtG5G0kgwpc4uQlOsz7tmTLV9S3Il0b9H7V9EZvpCx+i8b4jTUtw+mmEKWY8SnJgqHCP6mIKJyLWwHoSyREJJpERFituiLBt6zUv5ibY4W45IPbPwctqPjL5TJE0GzkVtTlYfkL9n6K8GKEm2LMzSlvIT200XGv0s2j9WkphSlYmc6plT+rzyxieBo1LUyPJtFOBgiddr4thaprdjiu+2UdIOxYrsONOYD7MMmBnXCEtFSHIsV76WkSl6QG4wMWYIjfzcwZSO7ZQ7JT4V4EhTVKZUx3296aZApxL5id35CbIrmZ3uHwnlxQcDYPaBzk6NLo8FmLvy0RvYXG4FQcIcAVs/XUmuqY5h1g5iqslvgiO+JlPXQkyL9sE0Ylo0L4eOh7gQGVKbn3K3a4Je6kxd5alnWWQLReumy7Q/XTKoOC5iWrTP640nJvFbxv7ZYsvvjpdCR0TZp90vlpN3dJSS1bdTMBHZF9YDh1D0KImUqOguW5S26SjpxBJXOyZIpB5n6C1tfhKndFTRzXOn+1L2g64XJVcLN8Fz25wEuTNwLtqXrk9/03QgbaMlnYPqOjYxof7pja3O7s7fP1aWmGbgsPTPpIwlOnrlr0H8sHuanxi0xDmf5lE8aYUtTt5YRyDpI1jK8D8mMFtz5i3LgCUVrtJFzpxTcRcf5ZEfsQ6pj2lJOr6D5DJlS5utccqdodSuNAVlovMP6bgo13FU038l+bOX1pMgFM/F8VMl+IfygPfGkdVmauey96c9y558PJVrMIA69cBFFibiVpW4S4CcwS0lHIlkt5W7lnH9dMS7rjoGWTuIKQgvOlbHca4inbVXl75610JMtf8wlZWnD6YR06J5uXQ8wEUGirXrEn0K+u76esagX9BWWfUIvqbU2UloCvZ5J/lSZRayf4HARuBygg6drGEfqWREoaAkcxV0vlg/0JFxdARfUWIKvdHyav3biY0hotMWKezoyD37eEJ9vmz57+ixWvLF2nGKiVFWNJihtxRZuU652lDkFRmLNJEtZj9kuzkmcKjd6Uiq2NnJCXJnEdMl7YSr7onjdxTg8FuKbJoAx46LEvaYjuO0z+FOqH9YmjNUtH8wMY3BSLsz5WHvYgOTOvRXHD4tDp2lsxm7sRuKZkdN1F77aIuDxMlfNDxMvPSiHx7sTeX9HKEtlvhLqLzyxSHzg8MO2jtNcUNOZPBNMeox0a0H+rxSOsheHvisZEo9YF/6S5JvbHOng97JAL2DNvzXdKOV/caToqROuVPik+zONKEPZz6ZNCEkbOWBwcEB/nkP2DdxVDMXm78RaTJcMoI4epCn8jryYO6jLlp0KcFWCy06D9WaoXUOBqC3dzrqyson7WKAwG+H/OBaUveOumjvtdCg22uM0yUK6WdQNx24rjrq/FzE1DrMfU9eGCAOe36yzAH71gyVLlp/FumDqcT0BvpzgXZdZilfQPC9jwYdsL62gfo29fM+unttcctV49DY8FMQJw1v5DOhX1McJzE1/LZz9fmEgbeY/Rth/0kDrT3CQvr7a92jwbl9nubcBdCLZZk26DyqwRcXrAzQ26PLLkqo/9USx+CZM7pJti6CWyE9iKQMvyRgoyO4bREw/SBdGGJjh33Avs7o4hhNIuCPatgXh+z3cXxmvcTruOIzYyxQcbUclG9rjy4H0HpKt2tZM536vGMau2z7sd0Sl6ZExlYqQ59WElwgMQRdPpB8qUeC3Bk4i+oU7EvF9FcB5vpIky3QsdA3eqjHr8ilOjrjhPrrn5M+C/YPJqYJQMrr2Crh9aLqur7OyST2FklZLD730Xppxi9h40kD/uHIOfNKO0DJwb6hr2qkDk/X19nX36UY9QTRI4+TrjSTPi9Wx9Ypf8jrNcviZhB6a5R1ab0fhDdGiLgpSuqUOyU+5edMo4TKLZPyDXNeSar8oyyiqKud9Cnf9lJmTS6nGOwaV78Z16uKZTyrvKTBIO2aVnFEi5WPkFdf8xZc2Sevd63RLR6fwoGhsH7aYFxXHUW+CcSUfku6kpRmTf9X5ID9DGJKZeXtg1nEtEheaTousFH/5WzXpYkpFaOwDk+RUNfoGjfvCGkK4GRWIQin1DmJmIq0eft8ysCb3/7NMNhromZcR0rXJNdedzD4lkFKVUXn513jmmZ1lTNd+alccQoTU8o3tx4EaEcDKdhQxERbROrhupI0aTyjMfBTV90YJF94mv8ZLzhRqbJ9o434YrPma30VN41HUk+dV33Px+hth9eCy2tUJ1ik6CB+0LXF4TWyQRrlYxklswljWAbOQXUK9qX8+huUEA9kyZZwJWnv3NV+CfWPlxp7UqR/MDGNwccPGAFGgBFgBBgBRuDeIJBGTO9NJe9PRZiY3p+25JowAowAI8AIMAKMgI0AE1MbkTv9nYnpnW4eFo4RYAQYAUaAEWAEroQAE9MrwXfbiZmY3jbiXB4jwAgwAowAI8AI3B4CTExvD+trKImJ6TWAyFkwAowAI8AIMAKMwB1FgInpHW0Yt1hMTN248FNGgBFgBBgBRoARYAQYgVtGgInpLQPOxTECjAAjwAgwAowAI8AIuBFgYurGhZ8yAowAI8AIMAKMACPACNwyAkxMbxlwLo4RYAQYAUaAEWAEGAFGwI0AE1M3LvyUEWAEGAFGgBFgBBgBRuCWEWBiesuAc3GMACPACDACjAAjwAgwAm4EmJi6ceGnjAAjwAgwAowAI8AIMAK3jAAT01sGnItjBBgBRoARYAQYAUaAEXAjwMTUjQs/ZQQYAQCLizkWlwwFI7CiCFwuMJ8vVlR4FpsReJgIMDF9mO1+u7XmWzduF+/rKu28jZLnYfPvsZHjDL26B6/ew8x4Wiy4RB43rkMLTI58NLbW4XkevLUNVPaGYEpTrGV/WeyfE/R3Gyg/8kT7lR5X0P64wGivBM/bxP7nK0h25os8/bP8eYx2SQ4fo/xJ7kbMG+9nd6Oad06KJXTsl9XhFmRlYvrLWnc1Cp4d1uHtXtG83qKxG+2WUD9cnjKtRqvckpQ/+qivlVD/YOK5BKmMibtEHjesQ/P/moKEl1920D8dYnDYQWdg1jtWifv5QOC8aoRqjuNXREDLaBz0MTwdoHfQweAHMPmngtKjNzi+uEJzLTEQ3wgxvY22ueF+doVWuN9Jl9CxXwbILcjKxPSXte4qFEwG31shYjrG/m8eE9MbVa0lSGVMniXyuNEBU+n5mo/RA3dbIIK+cjN982M0PQ+lq75Ax/RUPVhiIL4JYnorbXOj/SwJYH6OJXTsl6F2C7IyMf1lrbsCBV8co7W2OsR08bmDqsfE9GY1awlSGRNoiTxudMBcQp5Yne7Bg8s5jrdp5nHFZkxvVDeAZUjDtRPT22qbm8byHnSTG6nCLZC9a5P7FmRlYmq2luiUFXS/Avg5QW+7ig0iZl4dvR9GxMsZRu9bqD4mI+7Be1RGY7eP8dyIYwZ/DNF5rfMqYeP3JjofaZlwBN/zEPVdks8Sl89TlGLxbYD9l2Wsk0yeKufUvRw5+9hB87mO64F8smqv2+h9kpWYvKuqfKTPlqgn5buMb6Fh7BZf+vAjMrbQ+xwHTrgQ2LgHmNroie63AAAgAElEQVREYo7B9oZYig3kFBjkINWXC0zPevBfVgL/NGrP2usuRjGxZLmVdxPaFoTJYagDtvvA7LyL1u9apnWUX/roO+oZVMkOXEwwOGii9kTnUcLGkwb8k2kY83IEn/QzpU3ItSGiv5dzTE6o7StKt2XbN3YHmNqzhUa7hYXa2KtflsBRyB3zDayidTjGPJcsuuyC/TGozAKT/9poBu1k6Lo1+zb/bOqth/WtBvwjh5zUq8m/cHsg/FNnH/dDv1Urz0AMM0C25dDwdaV+/KSB1tFE+bsm4K/zcLYZgBnZoFqo4+RD+7yJNmFNab90UVX+mdE+ZNk+AIWxeHWM+eUcY6O/lB5TO+s6Wf69ZE/fDjGzdUDXUX8uJjjea4Z2WPd5w6am2ZHc9jLF5s5OO6H+rG2g+rqD4Q+lAzGCr+oZ9GnSowoa210Mvqd4M99Q22gYI5+G/uS11Tr9lWyeKFf6Ahcpd/F9hN5uAxXtG+6to/y8ie55zHiLMZ38kCt63Ka4TxtovR9gasKvbFJmPKr4dXABGqNTdEzja37mr7cxZl3OMHxr1F/xlslPM2cj7OItS8hq5Jg7yMTUhEp1Sn8wQnvLw/qzJvy9Ntp7fYy14l5O0XtBg/06ars9DE6H6B80USGCsOVjZDfy9x7q9NtaBU3t/0TG9FEJ9V0fNcOISlGWI6aLMx9lWs560kTnaIjhSQ/+c9rIQT6XBpmhMepDHSWvhMqrNnonQ+WT1RIDaONIduj5F3reQYOM/R8dDE/p+xDD82nxDSEK18qLOsqEw57EbXDYRvOJxPLN/0UNSdqAAtiD8wLT8yGGRz4qnofKDvmZKXm/RPM1m1uEF0O01krYeNFC53Ag0vUPGgJLb2sf48jgqMrdHWC0V4b3qIrmDulHG/3PWkGA6SHh62H9uS/xPeqoepbhn4XxYrIYD6bvqyr/rvB5FO35O2FVQvO/sE7jt5tR4mnkAU1c/+hL8kG/feui6q2j+tpHl/SE/PF2qkLeEhEIM70xSIWPbezVL8vg+LSO+pahhyc9tF9VJHZ/5pGFBoaC/TGsiHi5EHpz2of/1IP31JdYk+4YehO05zMicgPRt9qv5Ytb6UUvRugFMa33MKJ+traB+rbUkUyf1aAuhIkv9Ip0q/WyjDeqX8Z1P1IhwNVmwldY2gYhv/KhpXzXtW5cTITud/4gct5AR/ef01Fk0F4Ki6f76O6Vsf5c9bGjLlraNn2YYLRbFnbLf9+X2CodiOmjVVUsphiRnI5+P1E+pUl2pIi9TCINGgvT5gq9WKvD36lZM8+0Eassx41t1adP++juELEuY/+TXTnj+w21jVFCGFzCVlNijcXSNk+V+2bXR1n0GYlR/30LNfHCtA57jKDJgeFfJZQe19E6kGPK8KiDxhbpcDm64W0hx3TvUQ0t0jOhN134NGFk2vm88ajSQX+9KS4QNks0VKDeeqz8s4Pui1LYBw1b67JhKMxbohJe9RsTUxNB1TnKW2WUd4fxWRvqgEQYvE34Hy2C8ZUGfA+buyODuM3RF4a+jt53syAgaPjrIKaCFMiZs+is1wIDsTRnznpM0fsfkU2DrFiihV8zSHIYMT2kcPW8KjpfrKjUuWmX91oLQwPSpAFFpk4gR6oce/bSKjH2dWGUq3+c/lsXJLB9rp/QpyqX9GPLxzDC4lQ8Qfw8bO5YO7ovJ+g+8+D95mPkKM8sRYQvF/Fjmn4O4f/mwXvRD3fEf9rHZpL7wpkvSJ5+2dBlxOu7wHBHEty+OcHuxDMBe6J5jnql4uh5qP5Ds8/RP52mdWpk6JSlaH+MlhN+S64TdL/eiduD+akvsK+KGfQwN0FMfyuj/KiO3rfweVaIVinItrROzEawU6XISlEdOE3/JZLUQD/HBqDUJehlsaAXZjWDHNRG94e1Ekp1m9yHdiuij0FiK+Cos47htCOF7GXCUv5FX760x2QPSVrEJeJyKFbHNt+aJ1xoKfN9XnfbOEtVWBax1fJl94o2L63cnyP4RDatMULI7zI6RKpI5/aMTbsf6WSFzfQXAMowb7xb4QLOFpIP89Zbj1meh3KEm8hstM2JnlqxDG9JkXWJn5iYmqDpzvGbPVOmI8nNNW5S59hAofJLcsqXs11XX8qXTvEJne6zTVx+ITFNIMOLQUu4RLQGIRFxDii6GXRns5ewFd5FiWmQrRn42hWzr9G8FClIMXDjv4nguUmAbKeS5bphFpoVpgGbZgNMH0ClkzYWYkmZZlibOHYRaKso3QYRtxInnhnEyMqXiB3NYrtxdOOExQAtmqk3yYxTloL90ZYt+J5cJ+kKkSAnlAG3Nk1JAuHBfiEIinMF9Oy2ox2j0ZNlFfEcOF0XMV0eC/dxTZN3lVi/13V16qP+0f501FlHcdmRYvbSTUxlvgl9+VLppdlPb5iYLtM2GqPIp8LSPcYBul1MW30tNk+Xa6/aKOHmR41EXYnIL75M0KUVELMv5SWceeOhoO1R9SvGBeI1S3/iqLceKxPGJKd9vhVZ02vCxNTERzVI9NxGI4L6XfoYGs9VUA5IxuykUHIPZic2U+lOHiEDyu+0iI+pLLcFg9eFxSiZzfzkUr4HOhpnmObblCVLWEp6KCeuJu6uASUsJGFwVuVESVCYqlDImZcql15cnJmp3592EZ8HDAe4q8jnmjWRA7yhdySbnhUyyZ1TZvXQ5eOUhoFp9NPyTcsjC0fzd1c+6lnu/pgoZ4I+Qb3EJbUnzZqI2Ujll67yl22U74UgEOl7T7j1JNUliKcHmiT8nTjRsV/kakRL9NP4THyYufSPNQlV8NtVsHDbJtnHa/HVJCrTpY+BLFbAVWcVxWVHitpLlyzDHXpBdNeLlpjjL5B6Kb+E6k4f4xyz11Ytr71t7PzFd4WlaYsj8WK/X5PNU/km6r/qH4lyRYR09Ge9RL9WTfQNF1nkjZchr9QxwyYvxQUilcrxxVFvbS+SbJiqR2RMuhVZ06vDxNTEx9VI5u/KWEY3B5CBMv+FyiiNoj0jamToNL4Zy+exNEoZIzKY8qhwZOMFbdx5I/1iyRfyWROdk4nDdSFDFqMqqcEsXNVsQoQ80/mpuTc/qdKzykkQcv51IHy9ak/DDUG6TSMdVnfyJFKgiXxGW0TzTBCK/OcOO2i9rBiO/bpdzRlT7Tfqofo+9CVenLaEH3FkOZyKUpuUOtsNVJ6Gm990fSMvSU48XcZP1uH6cATkwG/U0yVLwf6YgHToohFrV6X/sedhTq4+7np5CFMkhFRdsnUjGX+Rswsnek/50sMb4c9NmzWraB4MMHHMpCfLfv1YuEhjgE7MzgW/xAMJdaaI8TKWsJcxWXQehn5aUjlxFJtPauHm1Bc+emdpbhvRTJ15iijLtU00d/UtBUsR4/9v7/pd21i69r+zncDgIuAicF1ZTQSBGN7iNSkEgQguRLiI+YosF8LiRm5iLgRx4aIUL0oRFAi4MKgISnFBhgsyXJQiKJBC4EIQUGF4Ps78WJ3dnVlpZflGkU8gaGTNzpx55szMszNzzsnM1abum8558+q1pyiJdQwAGYm+iZQx58xYycyT6XE77uFU3W3WATSqx230uVGzBWSRfAXnHtc8YatTnxkdS/ya/bJwu4vPFyuXNSv93L8IMeUQzRscRnkSxjWxkYAxtmHGAst1sBno6QFo5cwosJ0kucGClYV9MmMOWxSshbZZsEoPjnCWuAs7R5a4oDmJebg6Jp3sgsLr8Ay2efXwIlSadjHI2IYZ4Pw9wuRqgsllS+1gJYmCp964XIMXN6LJ6EcP/dxdarp/3EGNLvzHF/X7GH6bKLm6v9Gkm14QR/r+6qMWNDXVl+Mzd7KuR+j8SgZx2zgwBhj9z2Pd3nN9nWI5YrpqHB07Tq6+LTge427KJHz9avozvcCx511j3E8g2IPppGlLUt/Smei7T1aT14UTK4ZeHprGuIgMMo8+zF5mKJtf9tVjkTvGM/Mca0Q6mdPmbB0Gv4SBF5sn7Xjl82VGFltGehzOBPPjSG8J9NIZGaMeMpJsYpA2mp0VFaf8ZS7XN3HBPJGDpcqWmatXNOcVrheY/tVQmytkfKaN+gYY0dx9NUCL7Cg841ZbtNsXhG0cvB4wu5AZGLn5Cs49rnliVlOxE4Ji7S4+X6xS1kQbC3wRYsrBmjc4Fj5uM4XO2RLXF63TO6pmoPuIqSmTE4j8YyXeQH96fB7pHdTEPdA5sviLS/5icPUewziOabILCi/SHCumJ555/ceLoLQxDkobr6hsRqYkUZgzyBc4+k2LkP1u6tgK0XUsVpmdRFOAxmsfLTK2Mcf46ftMOk/JfbXEoVcuQxonMVoWR35UnwDC9C//3dW3Rcdjog7+xdevNzm+9pMWXnOcNndxvUeZcUafrCaDU2/jh2eJb11E6oU0eX/WT35Wj0XuGM+QwZnomZRLN0wmVx2F50uHLPPK8I3ThOzkQutNTe2gLmIUteq+SchivxSeq+frhS0697NovfZO9qMWhgnPKVSLkSm9PqQFmAzQUi/qHvsMm9+Vr+jcsxQXsAKwz8LtnjNfuMbOqmRlYhdNCjHliLk6if9uL7XHO1P8R0faDjaPJaa9/M9JJvk2beT4pnQ9oy+Gl5A5tnWIlPen7GS6WmLqu1CvjRGSd3HpHiwdLyexMdLbt/b0xDOv/1KN14uWuw57/7cYMQW0QZshiKn6FvtqME+3TT1sLrdndkxT1tiKKGYNM/TCNrtqwuVx6dWixHRpHH0X8k0kn7nGT0XHI29wIu2fvPMMO5Br/FSQmNoFJ/FimBDSfBmj88S1a65/duutqxxrgZzUfz/5AVaNhYs0xpI6yGD8WzqRM+5ddRSeLx2y6HJ9hCZnnKZlX5RE5e5mL9c3GVHoDwbLInP1zee8BepNGz9ZOV0bOL71wdXgRV/k0vmKzj1GXt8LiHP+dclbuN3+uU0Vb8pLrHOrktUl/4J/E2LKgXJ1Ev89dhFRQvV/ySOwOFvi7c1a7TrcRVnXPxnyZaz7XYv2pKsjMaWfsYYuPhdGJFNCrlhalpii+5zcGXHDnnySzB7OT9rBFDj8eNIAd7kCMd4EXAN5+Ae51XEc1Yw72k2Ia7JySGgJ8dH5zBuAymbdk/isyZ2k0VRg3EU5fcNRlrn9YKw9HzYzOwHWV2D2KJ8KNrpWbaNNTvWpH1N1aWJRybrssj7r0nrlHA/ZiW5pHD0uTAavyN9j6kXLKYt1F7XoeDR9lPnItinOYuol919pp//WF2b596QpXB65i8t1JAa/U7t3EX10XP5k+XU/OkjR9RBNckmW0Vv2MEtOz4+0C53L2R/7J+TJwf3yYknLqrBwkcZYEgcZjH9LJzy6QdmcdRSdL12ymDpd43z6SbsRc4/TlPDUZ2RB7rFG57lX3Te87Dht2kV+QDM+l31z9Y3nPEZMXfXa+Zi7i7Ivr891IItYfkyVX1zn+jDLNEv901ReQ7hv6NmPLOXIp11HLjr3mDlmqwgXYPXbZOF258xtVKZz7KxIVivzEp9CTDlozk7iGbRTXX1Pj+4GhWiQs973LTROQtQookeaFNlFP74v2IN2GlxC9cWRcuSe3hWcXjS0g/d7B4iU0/cu2rlO+Wf3bZQj/5dNtM+7aL9uIFLRXvhCM0bn8EA5htcO1slBNXd4nbyMrxfLEir/11LBBLpvu/oeo70Ev9UA8xaXAst8NbimnSfPHOw7JkHQzpB2KF951tSOz0nOJzso7UWIiERnCCKRenpmGwevtBPlzod+0mk8l/DqDPVE8APbNwHKv4XKT2HiTXLe/T5T9uidPp5Td0RPyFF0By3lKJ2Mq+bvpGnMmYN+6wx5q4rwBbnYcZehd4J2sftLABehx+WpU68qWyVUfwvVBJ3QRed4cEx0y+L4PEK0p4MbKF207XQRVqcsS4xH3v9x2tGm+DfA9ieNdz1mOmi90HfUXMRkWWKK7300TMAJHQDBjuF97HCfjMZh/ixoh9bb6v0SyscRjlLEdPy+joPDSM9V6g4ll5/5xKU2Gx2h++YtCr5x3kaX+WJdJRZO0mhxd5FB+1v606cbPmJKt13M/cT586X//p99UczohdPBfh+nFMHrhOZmfaeVz3+Ni9TLcbqN9H3FfeOqwhKVYnP1bIwsO+fZemsvwoSD/W58Fze9Rti5nuwD2PpAxk17IULyH87Xh4tTVJ6GaFhH/BRY5MQGxmnMfEsvmo/Ai+/sr4ALOIPtuHqoYLvnrVm+sZPHWxaW1SX/Yn8TYspx8nUSz0NpazTEQxmqMJazkJ6JR771cPrUWnyzkKQ5k+/kso0wDhnKnjGEMEEgbGXfdHi2chxa0IQzTIRcm2LwLkSNW2RTeMKnEdoXSVKqir0eoXtcjcNXbu81NRE1d+IyRNzKwj8VrlWQs+wi4eYo3JsvhJpy08MnHlvf9wFaJioP7brtHJ7NnNHbPPzzS5eFSLWhJilUoj6OW4aYUvHKyCQOQ0u7WDpUXhwCksuQTl9P0H/DQi3aUIeEn/L56iamsG/T5GeV7YLx4icXrVkIRRu2lsLjmuOvhF45x4OHxC2BY/XdOA4TaHVWh6p0hPp0ymJaVnQ8ckBU2tMmls8ZhvNt3xk2c2liSvWRzlMo2jjEoglF202NzcScwvVW36/jeju97CjvDhZjNS4ovK1H/tF5BCK5atfpXhnNRJAJT0hST1l5WPxIYqq6dqH50k9MqQxfSFJtP8DH6RjdEx5iWIeyPjhsovtlAVJqdHGVfWOKTH4sO1ffdM5j43vhNUKtTbVZmF0WYlMdjfP14VsXjcMDFo6UxsyB8k4x4nf5F81nUSs69/jCfOat67Yu+1mk3csSU6prFbJamQt+CjEtCNhKs+cQ05XWcwuF5TqpvoX6pEhBQBAQBASBDUWAEdMNbaE0qwACQkwLgLXyrD8xMVX3nRz3GFeOkRQoCAgCgoAgsNkICDHd7P4t2DohpgUBW2n2n5aY6mPuQiEXVwqcFCYICAKCgCCwMQgIMd2YrlxFQ4SYrgLFZcv4aYnpsg2W5wQBQUAQEAQEgRQCQkxTgNztr0JMf2T/CzH9kehL3YKAICAICALrgIAQ03XohbWRQYjp2nSFCCIICAKCgCAgCAgCgsDdRkCI6d3uf2m9ICAICAKCgCAgCAgCa4OAENO16QoRRBAQBAQBQUAQEAQEgbuNgBDTu93/0npBQBAQBAQBQUAQEATWBgEhpmvTFSKIICAICAKCgCAgCAgCdxsBIaZ3u/+l9YKAICAICAKCgCAgCKwNAkJM16YrRBBBQBAQBAQBQUAQEATuNgJCTO92/0vrBQFBQBAQBAQBQUAQWBsEhJiuTVeIIIIAgOspJldTgUIQEAQEAUFAELiTCAgxvdVuH6NdDRBU2xjfaj0rKvxni76x7pGzlsBz/K6KIAhQ/zBZUadKMYKAICAICAKCwM+DgBDTW+2rFRFTRXAi9G9VVgAFiVT/uITq21um3Nd9RFtVtL85Gr+BxHR60UA5KKNxcQd3Tf8tPXeokvxJEBAEBAFBYD0QEGJ6q/2wGmI6+VBHEKwbMR3g9Jfg9onp5Sl2g7tDTG9VHde88H9Nz9ccBxFPEBAEBIG7jIAQ01vt/RUQ0+sJzl6U1o6YTi+b2A9umZheTzH4Yx+BENNb1dK1KPzf1PO1aLAIIQgIAoKAIOBCQIgpR0UdJVbQ+gzg+xDtF/vY2QqyxOh6jP6bEPv3iTAGCO6VUTvuYJC5FugnptOvfbSPa6jsbesygm2UH9fRumCF/NPC/j2qP/0/u4M4vmgh/M8OSirvNspPI3QuWVm8nZMBOsc1lE3Z23s1RO8HmHxtozqXbE7QfWHrScl1nLpscD1G73V9htPWDvYPm+i5juW5fJSedBFafFPtj/4ymdlR/uSynWz/4zqan/zXDArhlZYNwPhTE/XHZWwb2Ur3Kzg4bKD9N8OcX4341sPpU5u/hJ0HhPkQmQN71qZZtVqPdn8fKL3kfVe6v4/w7QCT61lulVJ17+L0kq5o8LpJN07Rs9CMe2geWj0vYec/Ido+vSmo95U/hwDpwKsaKrYvzVgZfmfyFtBz9pQkBQFBQBAQBDYQASGmvFMNkYi6fTT2Amw/qiM6aaBx0sHAMojrEdpPiJBu4+C4je7HHjqv66gQgd2L0OcLLnzEdIrebyWU7lcRvtZl9N43UdsjolfWZILkuhqi97GH5q/09xqaH3vqe+9jHyMrD4DR26oipNuPI7TPe6Cy6g9IxjKiv1hGKvN7H5Gqh8n/JkT1fgnl4whHc4npFKMLqiNCJQhQedkxMvXQ+4eRMlvP1g6qL1roEE6mHqdcvB8oPR2hT8+8rCAIKoje27b3MLwymQ2Jqz0/wvZWBfUTjWX3bcPf/qJ4peUiUvqO8C6h8qyh8f7YRft1iNreNmrvGQZGnw6eHaGytY0Dg0PvfQvhY3ohoTu6o2QNOcQ0eB4h2ith50mIFuERlxNg+/kZWM3xfeHwzxaq9yqov6Q+6KJ9YnW1gf4/bVSVXE3VDuqfA/WywnTQSreM3j9vovWkhO3HIZpvu+idt9F4VlG6WnrSxsiS6QX13Ioin4KAICAICAKbi4AQU963hkiU98ooH/eyu1BEat7Q0fIuok8pwve5pY62d4/7bBfMR0yJeKWeJznMjmXpJLnz2D8mYuq5Y/rF1Puyx+olt0NDtB4FCH6J0GdVDV7tuuW3RHIuMTWAGazcxk9TdNX1gypaXzjAJNcILfJUsBWimyDxqXzm6/gtWalnd4jVz4bEBWQc9TX1/PcuQnpZeJYibAXxSpVKGoD2fwMEv3aSRDCbMSaHTiIe988pBvzZPGIaBNj/Y8hzkyKhf1xWJDf8yDra9E8Q7OsTAPbUtBtqcrhV9upxWgeX0vsgQDkxHrQQwz/1GFK7uUyuXD1n+SQpCAgCgoAgsLkICDHlfWsX819OMbC7Ofx3aIMfNymZ4OwZEa4I/fjZHGKaKNd+GaL1MOteKm/BHvxORLOGjt1FtEXRabgymiohPvpWFu7Z8u0jk/c1dW3ATTZtLvOZR0zNb7uvEpRrVsDfZNC02P3URYipux4ix1lCXwivmcQstQQx9ZDY4Z+0G5wi3bnEtI6zxLaoEeuqgxpdKXjRnb2cWF1OE3N6ZNpFSPkftpCmuYBLB5fUe49e4nNL7ban9SxPz1kHSFIQEAQEAUFggxEQYso71xIqusvn+md+V3fnHL/rhZUTjaLE1J3fv2Cb/E6CAcCQnJgAfG3jgI7f6e6f65+HMLiy5rqW+hQpght22Q4eL+S6hyhNpPjvLL0IMfXVk8WtIF5MDp7UR/kByk+b6H31tJEemKMvzrblEVNfP9tdXHqhsoLm1t3X+L/s2dzs06GDuWUBXr33yWvKi/XS1J7tLyaWJAUBQUAQEATuBAJCTHk3exbMOIshDVljJNqZs/8XJKZXQ3TfRKg/rswMQ2wZKYf8/gXbEAz7nOczJgBpoho3zCTmtZ/nz8mrCVcw26nlz6m0kTvVzkw2us+5wFF+vCOcKiCLW0G8UuXNvk4xfEv3RnWf013k5vkwe/UjByMqy9m2PGLqxcuxO5xbt8EhbaymGuggpqvUe6rDI1u2v2aIS0oQEAQEAUHgbiAgxJT3s2fBjLOYBTph8BMbJFnjHG6Y5Fjk6ST1r4YiNaUHdTTIKOTjAKOrCSZXA7To/mKKgPgXbEMwHkbKuIgMpVz/+3ZXT4ip3ilcFK+44z2J6wmG59bQLEDpwRHO+F3XOfr0sxHTm+p9jKIHF7+ex09KQhAQBAQBQWDDERBiyjvYs2DGWeYdhccZbcJBTO09z0ctDOO7qDa/ub+4MDE1+X1HprZY+zlPfvN7vMNqn3N95mH1Lx/lL75jWhAvV7s9fxufR3oHld8nzcNomR1TflSfkMO0i/+eW3fBHdN5epOQhb449J7n8cgmxJSDJGlBQBAQBO4mAkJMeb97Fsw4y7UxAnnUQsrJT5wlmXAs0KaOwHWMao1SFiamgLay389avycF0d8sKebkieUja226knBjYjo5Qz0I4DZKArBi46fFiWlBvBg2iyR7L1PGVnP0qfCOqc+YKMf4yd2XBYnpKvSeA+jBRYgpB0nSgoAgIAjcTQSEmPJ+9yyYPIt2m1NC9X8eaprYBXUQU0PagufMglpVYN3+OI7yT8gnKb+7yiQy7o8SfiHZz0jIQ3WQFb/Dvyn5qSQ3TosS03FHOeMvuQi2cmFE9bjdRSk/sFt1nDk8CXDRKU2GRuTv00k+nfcxZyU4iU4hvGZlzU9N0X1O7rmyBkhucrjEHVOn+yWrNyW43EW56y5ITGM3aTfQew6gZ5z18/ScPy9pQUAQEAQEgY1FQIgp71rPgsmzkB/Ozq86WhM5Dm+86ShH542TELUHO0gSNQcxBbmVIqJJDtqb+m6odZS+FyIkZ/qpHVNcnqIc6DuMLXKgf95Gl/kHHb2r6QhE9w4QnpAj9Q5aJw2ETyvYIfdVvAHWX6nDIf1iDvZtYbYd2zh4pZ3sdz70Z749v/fRICf/jnqcxNgWm/68OkOdjIzuHeBUOdnv4Owv4zNpGWJKJKsIXml5MEbn8AD1lw3t5J7u9dr+I4f572xIJb+Rjy2y8I7p0xAhd7B/3kakHPU7/IXm6nJxYnpzvbetzsFljp6zEiQpCAgCgoAgsKEICDHlHZu7mLOM1uglDgGqw5JmQlL67tpdj9BlIUFtSFMK06h8W6aJKZGp80hFZ1LW//fKaF4wechn6ecuCy1JO586xGmDwlUmswK+kKS0a/rfBY/yqczvA7QO901YzhJ2Ds/AaJkOR+kISdr9kuNiKS0rGYv93UL9kQndurWD+gdTy5LElKoohFdCpikG70LUHtrwouS7dgeVpxHaF4nWe63PbXGFiSnpxfdhIpxsfkhSX18uQUxJ6JvqvW14zjibp+e2CPkUBAQBQUAQ2EwEhJhuZr9Kq6OnC0IAAACySURBVDYKAdfO+0Y1UBojCAgCgoAgIAgoBISYiiIIAmuPgBDTte8iEVAQEAQEAUFgJQgIMV0JjFKIIHCbCAgxvU10pWxBQBAQBASB9UFAiOn69IVIIgh4EBBi6gFG/iwICAKCgCCwYQgIMd2wDpXmbCICQkw3sVelTYKAICAICAJZBISYZjGRvwgCgoAgIAgIAoKAICAI/AAEhJj+ANClSkFAEBAEBAFBQBAQBASBLAL/Dx4qx/Kurd5FAAAAAElFTkSuQmCC;imageBorder=#66FF66;" vertex="1" parent="1">
          <mxGeometry x="10" width="670" height="223.33" as="geometry" />
        </mxCell>
        <mxCell id="GOgP3sXONhZIXAOzlcGX-2" value="" style="shape=image;verticalLabelPosition=bottom;labelBackgroundColor=#ffffff;verticalAlign=top;aspect=fixed;imageAspect=0;image=data:image/png,iVBORw0KGgoAAAANSUhEUgAAAnwAAACfCAYAAABjogRTAAAgAElEQVR4Ae2d7W8c1d33L/Fn9C1vVuoLS67yAjUvkIj8IrYEDiBbjZoaiFZXcsVKRE3uW8Q3l2wRrFVK6pQQNwKcPtlVqk2EsYWFG5m6F2YTlLAWVBtKApUvB1zkylC7NA5y9L11ZubM/M487IN31rPr/VqydnZ25jx8fmfO+c7vPP0H+EcCJEACJEACJEACJLCjCfzHjs4dM0cCJEACJEACJEACJAAKPhYCEiABEiABEiABEtjhBCj4driBmT0SIAESIAESIAESoOBjGSABEiABEiABEiCBHU6Agm+HG5jZIwESIAESIAESIAEKPpYBEiABEiABEiABEtjhBCj4driBmT0SIAESIAESIAESoOBjGSABEiABEiABEiCBHU4gRPAtY+JoG9rawv470NVzHEOjE8j/fYeTqfPsrf9tFhdeOIwDT3a4tup48gAOv3AeE7lbWN2s8wwweSRAAiRAAiRAAttGoELBJ0VgB47/4RbWty2pOyeixTeP40DPARx4cRqrFWdrHbd+dxQdoYJc2OdHF3DLF3Z18foCS+rrv6/hrGLXcwAXPk4qEYyXBEiABEiABBqLQBWCT4mLfTh7415j5Tjx1BZw/klHmB2dwHKF6bl34yz2lRJ7bW04+IdFX8jVxesLLLGv61f6XY/m2RuJJYMRkwAJkAAJkEBDESgt+KQo+fci8qM+79KJWXr5KjH5x+c9wSbZlhXGPbw3JLx4HUcxXnB8hJv3sP73W7j25mkcfbIf037XYVXxlpW4bbhoFdP/18s/Bd82IGcUJEACJEACO4JAZYLPyrLZ6LZ1nEU+DMU3i5j9dT8O/3if2/2oxpgd/3nx8X/rf53G6ee6nHs6sC/djws55QdbxcSzUY29b9zhL0JSdOOs6xlS4xNDxcLmMvJvnsbxHh1/G9oe7cLhFy5g9m8Rndeb67j1znn0HzmAfR06fWqs42H0/3IC18R9y7nzOPyovib4efTNUv4+Xz5/di2MfOBcJfHmf6HTdRjZL+ygVj+4gP60Y0dXpPrSsmXmUfyOY+j3s7ilhes3tzDx4gG3LAXHmIpyaNj6KCYC4019aXfzZOe3fAYe6uCYyg7s+/FxnH4zj2WOp/RA8YgESIAESCARAlsQfIDXICpxIBpaJwvrf83ieBFh09bWhYErQXGzfuMsukK7Kztw4NWzGHIFlV+w+RrwrYiPlfdw+sfeBIigoOjA4dcKpjdzcxkTzxa7pw1tHUN479/A6uRRQ3AGw29DacFnit62J0/jWoQO1aWp0nilbYfm1rH8ps+j64qj7WE+9J4aMpDHWWH7MHZGOYxN8LWhOANFeR23/nC8iBBtQ9uPBjDriGdtF36SAAmQAAmQwHYS2ILgW0Q2rb1AbWjrGYcxWmz9PUOYtT16EP0/P4uzr55GvyGoDmL8byKr/vtChZ8Xr+mhq1J8bC5iXOapYx+ODqk0n8XQESnoOiwBoFMtx5O1tdneyNPqnuc8b9++Xxasy9cXslZ4/c94eWh78ijU9Soe9Z9dKKHeACz+4aApHB89jPOzi1iP8CJVGq8UfPsOHQ4KcNerGDNzy97KKya8q45YBhYxqxj97KjXHa7GKb7gsTv76qxXDmMUfMUZAOtzQ4bY63im37bpz/txQIrU9DgWI2ykyxM/SYAESIAESKBWBCoSfPfWF3Ht1cNGA+efHGAIko6jmJCeDZ9HrEN44pQnSXpuun5xzRMx39zCuM+TFqfgu/eebLS7cPaGFF7ryP+iy0ub6+ECbv1anG87jWuyQd+8h+Ub04Hla6SgahNhlW1gH0OX2aMHMfRmIXI5lnLjNa5zRHfHkdOYmL2Ga7lruHZb97FWJ/hM5m3oyswaXZ/3/jePiTnfPOO/T+CoeBEwy4AgGKPg03zDGZgvPx3PThh5wBcTOOqKvo7wYQQi2TwkARIgARIggVoRKC34RAOrGz/9GWjgsIzsIeHBcr1BXvLvzQ154sn1DvonI9jdoN5dAOSkg8AYvOrEx7WfiTQfygZnzv5tHAdcDl7a/N2lHUfOY9YVREbq3S+GoNqK4FMhrRcZz/bocWT/KgWrHXW58RrXtbWh6xd5sxvbzUk1zMuwtxuPOEhI8EUy+CKLw265aMPpD0RarUMznwd+Z/jC/RfzOwmQAAmQAAnUjMAWBV+HtYZcsIsqj7OiAdTCMPpTj//ziYdnJ4Lr0/37PQyJsE3vju9+4Tl0yRleHzkG0HeviCM83WISwOos+l0PjicaO1RXbcRgfUNQbVXwOZlSEwXOP+tNivHS24WzC+ZyOeXGa1zX1o/Zb1yCvgMft2qYh9nbF5v1NRHBV4SBr0x5/L2yYJwLYxSWT54jARIgARIggZgJbE3w+btqdaJWzC43o7ELFVJa8PkG5Yc2jKaYjE/w+eIOTadswIXgU/leuRYhutQM38O48LHpbTMEVZWCT2PH36/hwnOye7kNbemsN6ZNTXtwZ9+2oVhXsnFdyIQcN05UI/hu4cKPBNNQe3sxuUeJCD5dRt1UuAd+D2/J8l5uPt0YeEACJEACJEAC8RAoLfi0KPFPbDiaNccrWekxRVnXzybscV9q7Ffo/y3Hk+cTD2Fr+21ew2khxioVfEZXstEl7Iv7uQt4LzStOg95LP87CP/eF3lM/PyoWJrFETTuxAP7HkNQabbB4LZwZh3XfrbP6y73eefKjde4rkrBVzbzbffwLWK8RwhOnx3KZmB4+LpwelKXkYjPEt39WzA6byEBEiABEiCBsgiUL/hUcF9kjUHzXa/ZM1C9mHwN6UC5izKvY/aEaICfPI+CnAChIjDG0ckuWfWjT7T5GnB1ReGXUgzJ+81xVm09F3DLH7eXwdJH95YxmzG9bVKcGmIiJJ3FI1jHqp4zEXKhOfHlKCZWvIvKjde4rhLBF5KXaOY+e/tEsZdq39GWPHwhkyVWp3FcvDz4PZ5lM/CVyYFZ05vrSz2/kgAJkAAJkEBiBCoTfEpaXZKzaf0zWv3LhnRhaC5EoWzew+rtPBbF+DBTrHTg6CUxwH1zFbNDUYJNsfMJiLaDOC+6Utf/esEQqqrrTYowc8ZoB47+LnyPYDVztCAW8V1fmA2fpOETAjIuQ0wooSM0wj1z2F1IoVAe1A7se3YI4+8UsLju3XDvi1kMyW5SJZpFCOXGa1xXVPBVx9y0d8gs3dVbmP3laUwL3vAJvoNyEsTmPdzTQr0gdjNpa0PHC9Pe7OXN5UBZ2rLggzlLt+1HQ3hPiGwX/71V3FpYjJj84l7FAxIgARIgARKoGYGKBR82l5E9Kr1xvsV/1/M4K4WHanC7Dttr8f28H4d79Bp1vrFwIRMg1M4cB9zrRZw+waborL5zXHRnqmvVmm4HcOBJuY6eF4YUYSpP/gWUrV1BrLX4hnC85wC6nIWk5X2uaOnYhwNHvPXXDspFp33eK/ce7WFS9+o8lhzjZXaZR48Z68DRSXNh63LjLV/wVck8dN3FDuzrkpNQfGVkMzjesqPrAA50KRuLazfFvsGa86NdOCB3UNHn1afPO1kJg+Bi4R3ocsrC6RcO44DeacYXR82eaAZMAiRAAiRAAiEEKhd8KhBjfbE2WMuzyMC/mMWAsciyJ7Q8kSIaaOfe5bejdizowNFfnDaWwJDCy7p9s4ALkXF24Oib1wyhGrh/vYALxiLLYWk2PYMBESVFhHXcgeM+4YUQYesyiUXwqV1JQpZSKTPeSsQOqmS+/vF5HA6Z5ezykCLOKSOF18zu8qhrV2cHjPUivevUzhdncW32rPe7T4xVxEB5va8MmIssB8pBUFTKx4XHJEACJEACJFBrAlsTfKqRM7bcUoLK9ChhcxW3Zi/49phtg/KcHX7hPCZy4btDhO6l+8FqiTF8DqbNZVz7dT8Oul69DnQ9dxoTC3a3cuE1r1s4IPhUENZiyRM4/Zzn0bOEgvIOPWd3oxr7oq7kMfFL5bUUu0NYHs0DOD40jmtfeF2uhiH/fg3nxW4cbY6H8Px7PobGTfaXe18UMP172+vo7d2rvKh2nJF7/qrby4i3UrGjvKNVMQ/Zc1nzUHsou920moXau/jNIRy2vHq2KLfzPoGCbzKNWZZU2TuI/l/PYlF1o38zi34tzKoUfFbSVBe0b+9o28sc3FNZZ4WfJEACJEACJLBdBEIE33ZFXWE8xoxI09NWYUi8nARIgARIgARIgASaigAFX1OZm5klARIgARIgARJoRgIUfM1odeaZBEiABEiABEigqQhQ8DWVuZlZEiABEiABEiCBZiRAwdeMVmeeSYAESIAESIAEmooABV9TmZuZJQESIAESIAESaEYCjSP4mtE6zDMJkAAJkAAJkAAJxECAgi8GiAyCBEiABEiABEiABOqZAAVfPVuHaSMBEiABEiABEiCBGAhQ8MUAkUGQAAmQAAmQAAmQQD0ToOCrZ+swbSRAAiRAAiRAAiQQAwEKvhggMggSIAESIAESIAESqGcCFHz1bB2mjQRIgARIgARIgARiIEDBFwNEBkECJEACJEACJEAC9UyAgq+ercO0kQAJkAAJkAAJkEAMBCj4YoDIIEiABEiABEiABEignglQ8NWzdZg2EiABEiABEiABEoiBAAVfDBAZBAmQAAmQAAmQAAnUMwEKvnq2DtNGAiRAAiRAAiRAAjEQoOCLASKDIAESIAESIAESIIF6JkDBV8/WYdpIgARIgARIgARIIAYCFHwxQGQQJEACJEACJEACJFDPBCj46tk6TBsJkAAJkAAJkAAJxECAgi8GiAyCBEiABEiABEiABOqZAAVfPVuHaSMBEiABEiABEiCBGAhQ8MUAkUGQAAmQAAmQAAmQQD0ToOCrZ+swbSRAAiRAAiRAAiQQAwEKvhggMggSIAESIAESIAESqGcCFHz1bB2mjQRIgARIgARIgARiIEDBFwNEBkECJEACJEACJEAC9UyAgq+ercO0kQAJkAAJkAAJkEAMBCj4YoDIIEiABEiABEiABEignglQ8NWzdZg2EiABEiABEiABEoiBAAVfDBAZBAmQAAmQAAmQAAnUMwEKvnq2DtNGAiRAAiRAAiRAAjEQoOCLASKDIAESIAESIAESIIF6JkDBV8/WYdpIgARIgARIgARIIAYCFHwxQGQQJEACJEACJEACJFDPBCj46tk6TBsJkAAJkAAJkAAJxEDAEHxffvkl+E8GLAMsAywDLAMsAywDLAM7qwwEBF8MIpJBkMCOJ6Arwh2f0TrMINnXoVG2KUnK9vwjARLYGgEKvq1x411NToCiI7kCQPbJsU86Zgq+pC3A+BuZAAVfI1uPaU+MAEVHYujdYSfJpYAxJ0WAgi8p8ox3JxCg4NsJVmQetp0ABd+2I3cjJHsXRdMdUPA1ncmZ4RgJUPDFCJNBNQ8Bio7kbE32ybFPOmYKvqQtwPgbmQAFXyNbj2lPjABFR2Lo2aWbHPrEY6bgS9wETEADE6Dga2DjMenJEaDgI/vkCDRvzBR8zWt75rx6AhR81TNkCE1IgIIvOaOTfXLsk46Zgi9pCzD+RiZAwdfI1mPaEyNA0ZEYenbpJoc+8Zgp+BI3ARPQwAQo+BrYeEx6cgQo+Mg+OQLNGzMFX/PanjmvngAFX/UMGUITEqDgS87oZJ8c+6RjpuBL2gKMv5EJUPA1svWY9sQIUHQkhp5dusmhTzxmCr7ETcAENDABCr4GNh6TnhwBCj6yT45A88ZMwde8tmfOqydAwVc9Q4bQhAQo+JIzOtknxz7pmCn4krYA429kAhR8jWw9pj0xAhQdiaFnl25y6BOPmYIvcRMwAQ1MoC4E38bCCLofSiHV2onM3FqFOPPIpFJIWf9pZJcrvJ2Xk8AWCFDwbQFaTLeQfTGQK5j86W60pFLY9fQYbm8Wu7bWv8VfN+8owXc947RbKaTSWaxUZI4N5M93Y1cqhZbHMphbrejmkIvjt1VIJFs7FclpBdm0bvtTyFzfWvB1fddyFmlX32SQrzKxMQs+WWg8Q9hiLPhdGyh/Svx2yp+lNdyezyE3n8fSRlhuZZwUfGGEeC5+AnGIDqPcuw+1eBbkucBzEX+eGiXEONhbeTUqU8l9F9qf6MXgeA4riQqmLVjEyFPS9WH8dXNcgi/w7HWNYSkK98YcBuWzmEohfakyeRYadKSQsa/euJNHTrV9n4Y5QSTbOMSODK/25WZjftB6KXG1QTH+kZwo+ELLVZGTdSH4Nq4Po7NVVbi7cOKPvsL92Rg6rYctqhBub0EtwpI/NRGBOERHoNHxNSpuZajOU/C5pSsO9lZghjiSgk8cP9SLyTtu1PV/sLmEyWO7LM9Ry2OjKCQqWOOvm2sm+FJR7QuwMTfoeeKcZ7T2gm8DcwNOOQx99jeQP9Npi6aHTmCmoTx8Im9undeNscWIx4uCzyl/defhW8LMmWEMu/996HYNugfpF+Vvw5iJMrCwe+HcHiezUQ9k/JWKiJ6HJBBKIA7RsfRH83no6/KExp5Dg+I5GsbwHyP9D6Hp28kn42Bv8TEEXzf6rHorg779dpeoK7gr7m7byfQryVv8dXPtBF+U124DuRdbtl/wrU6iV7edoYKvEjuUc238toqMdW0GfTpvT3Q6Dp0UOn97O/wWCr56FXx+e5VXiFYupb0HShfuzRXkzvVYYxTcilcXkpR0YZeIQ4Xzeh969tpvvcqL2P50H0bnY3DJ+7PL701DIDbRIYhJj1/Ag7BZwMgjniAcnPOPbzDfmvecL1ghe89WGpMrwManWQxqQdO6G90DWRR8TnWdpLWbk8gc6cRuy/ueQsvDneg9NRl5vb6v1p+xsTcEn/n2vHE1gz1ufWOz8+drZX4UfU+3u3XUrr096Hs9uht45eoIenU99FA7es+pa6XdZBqK12ueXf3e3+j73HseGYFVOlZyGD1ujwNL6XM6k2sFTJ7qRefDjthp3Y3OIxlM3gwvLOHl6jbGntBlNuqFXUdY3mf8gq8XvcecNB6bRCB3GzkMOuW/91iv204Zz2eRcqRyFflcRwiZtZtZnHgsKDKtdtB9+SjSnemG24LhBQArOYwc0eV0F9qPjCAXGOseXW4sy8TYjq5N97kc+6bnvHrtiTGESj43P/6xjkUYOMVpZX4MgyXrMBnOHozclGUxj2HH/hb/oZz8Ebd/2+nmxSgTCnsc9cOaHE4g6wcjGWV/iblL1x9viULkXO5WRKqCdQSfcc6teHXlUabg+zaPzF7vHr9wbD+Vh7/Z9OeA30kgjEBsokMEHtkwONd43u4UUgNzZtk1xhl53SPyOTpxSg+d8D0TezPIfysSAmDpUtocYyOfwdY0sgl2c8bGvmhDXazu2kD+VLtb0fvrlVQFPFsOZZD5ibaHrNCLxQ9Iu+o607Zg9H3ePWlMLkwiLRsyV0gAuJM1f5O2T7Ugfcn0Nm9cz6DduMbJz94+9Ll5q1fBl8bwGe1w6MOMT/F5Y816MXJeX+fzBhYtR5UKPmk/XS7Ep2snKVJkewhACKTOoWGcUBMi/fYJPMMyXp+tYm1H1zCpBbbTje7Va36x5dRJIj/m5JYiDFDiGW3txsjHXusvhZvhaXSHlDkMjRcjGX8nxj7TdWiJuCuqH/rQu1vbT9YPOq7KPutW8NkDVkc9t3aqE5kpNXnD/r/tjlmIKqhrmPmp95bU/vwY8otrWPlsDsP79fkWBD0llQHk1c1JIDbRIfCVEnxYHPOGSLQOIufVV/AaphRSYgC018jblUbLY33IqK7LoT5n3Kx9vntcNOI3R7wGvLUbw7O3sbK6hPz4Ce98V3IzQGNjX6yhNgS02QAqD4WaBWs1ontPYOz6EtaWb2PuTLd7vkUKcuElUve4Nhjw92DICj2qXrMLjGFX3Sti/RR9n7ynpVXXgU4+fjpje7eUJ9l9SW5B95k53F5ew9L1MZxwz3eLxu02Rt3zKaQe6sFgSPlKFRkjJx6BkofK9nH8ec9aGtnr3kzIvmmp+ER37rFJFERPlOHNKVaOKvbw2ZMUJ4c8z1Hq2Kjb7uUWlpwXPSk2ogWfVUa1Tc4MokeIv5YXc+KlMarcxNyOyq5qLV6vZ9znZs85u2fCsPEWBJ/xjKZ2oWfAHj4z+LTu6VOrggxiTr/o3hzxPPr6WVBeuglH5O9td+o+URfIOkIIQSPucuqHtRmcEC9f5dUPBqGyv9St4LNzEFUIZf4irinSOBoNpzCuDJXHJFCMQGyiQ0TiNUI+D4J7zRLG3HF+LcYyBPlTXgMuGyPZyKceySCnKzgAa1NeF5XXpScauVQKhhCE/C3ibdxNa+0OYmMf0VBvrBSQfV548ISABkwbDM4L1W385nmLZBeW3wZqQoArHlPbJ/iUEGh/cS6w8kHUi4OypvxNDxmAbCiVqJOe38/EC0o9C75lYdMIod47tWZ4VeUzhohypJ+AyOc6UsgU8+DqUMsVfD6bfCyETcoro8D2tKOyPnI9afKFSAkn/0SjSE5RDIQ9Uyko23l/5j2uHTfzyLiiaxD2iBlvuEXnb7Nu17PrJBJCtcV96ZJxt6B29YOXo0qOdqzgMypZ+RBbdOR4KFnJVoKO1zYzgdhEh4AY2TCIa6RIcysZY3xfLyZd77ev4fCNP4EcPJ1KW2P8APlsyG4KOxHyuXIrS5G+7TiMjb3RUDueLu2505/+ri+DmW4YvFwXzutJZp7XJX/GE+OuUNK3SC/Bdgq+CA+tTL/bIOu0yrw73hnXA6J4BV6eG2EMn+2x8br0PJt6Atd+pqRYMcq+UY6C7Unkcx0pZHzPrSsmtCHUpylc9BJn1hUy3J9kfcvNyOfbGeNn3RQu+OTzHhhGYtQVwXzL1NrHUgzJF0ZPWKVS5otsID/aK2j9EMFAllND1NqpMPLkllmZBp02PX7P5pQbsuuIljP20nHyWXFFoBG3V5bsmAF5j7bZ1uoHHWJlnztW8MmH03Jr6wo88FlOQa0MKq/e+QRiEx0CVWTDIK4xRJp+G5ZeFt/Ac+M5CDQcYZW8PBchgpxnyGj0ZBprfBwbe6OhDua1Zf8wcv65XSXukXWNW6GLdUaDzCRvWRfJ86IbyWEbbdfo+6Lv8Qwmy6DMS+BYCz7RzWmOJVRhygY5mAcv1vKPlO3j+PPy6aTLfYY8r4zrNXeeKcnPsKNRJqQN7ZR6cfk891KYGUImRsHnC9e0ifdSEuXhk3kOlAGjLQ3mO2An2esmukDVdVKEmV3N5pjEssbwlbCHHOMow5Np6PnDEuCO37M9oe7LjSWil5B1x6cKT6kRd7BOkQyrqx8CdMs6QcFnvFWXxYwXkUBNtveKbBgM3sFuVfnWaI5BKtVwhIkDea54hWU0ekYaa/ulNoLPWZZlqNcbpxgyuNrsvivOp7oKXdohKJaMhtgQ8tH3Rd/j2UuWQdk4BY53muAT3irLcy66+HSXoORnlH2jkQ8KH8nUuK/JBN/SeHdw8oghGp3nyTc+OUqgRYrXEvaIDO9OFj06PQNzWNGzifXsYfelQI39y3k7fElRbcRdy/rBe2YrOdq5gk8PtlQGNCrESvDwWhIIJxCb6BDBRzYM4hrrUIwd6fztpLf0hb+iVD4W6YHxD20wuh/0W6ruxlCVVVBo+JOSxPfY2BuVs26o1YK23vi9wEz+lcmKtzqSXTaBbtJN0XAYL59SuPWYY+Ngdg2Z9Zu8z7SfURYi6kSZVkOcRBja9XqoetZfviC9IGZaIoIrebpmHj7FVK/52ppB7qqeSOANkZD8DDa+cpQzxqCpSQ9ew2/ctx2CT4sVl6zs0tVdl+rH8HJj2DeizLhBFz2Q3fsej8CLhCO43C5SFWYkJ+lBFt7K0HrNS5z05JnDEASbn2Qx6QzP0F24cJ/VTozNeuLQeKa3rX7w8lPJUQMJvmClZ2c0vKAaEzN8g9UrAcRrSSCMQGyiQwRetuCTY/bSaVeABLpC/IJPzkrz/+Y2DNKDmEJadW3U2V9s7H0Ntbup40Yew+7M0z3IXI2amOH/LRyU0cD4x84Zg+i16FThmI2Z9jJZMSjvgliTMU7B541bs9c8WzLES0j+XK+HmvXYZ+74oJZ30R6TmF4eain4lLCwJ9DsQfteZ9ylGCIRKfgMsbQHIx8LTgaDLXbp+sfeWsGb5UN7k62fpEBKyRnVgFpCx1tfUo4xq3E7KstJSi9ybi48P3jIG/9qCDGZH+lN8z0jHgOTjVGHbS4Z+++ak9LUEjp6vO0JnHjeFqZer8kKJg/Z5wZf1LuvSNGs6JvjFM26Q5QLcWjUD3vNSSvmeqCyfhABVHBY54JPviGqzcAzyE5lMXpmEMPTenBNREGFOZ1cTXUeFcu6TI5n0Ne1y5jpWAE3XtrkBGITHYJj2YIPMBb8tN+SQwY7+0WdWhLk4bS9bIZvSRCj4pPLsqglDU5lMecsh5SbzWJ0II3dhyrd7F1ktMrD2NhHCT41I3Vh2Ova9QkZVUG7M2tbO9H3+qS3bMbUGDJqMWPpDVmdQZ87A9Cpx2ZzmBw/gW5xPmV4+GTjo8RUJ/rOZJFV9ZZ/UV4ZlyE+TK+aFCymSBQGMZZl8dJqL4c1h+zrg0g/LML1XZ/a24vMeNa6Ti4BEpe3uKaCT3Tjas+TFNqSn+Gp8wkPa2maUAblCz5czXjdn04ZmxwfRub4GOwXE1PUeGLH5xFTgvuhbvQNBZdiMl8Qa9uOut7TUE+wU/7cMXNKVHme1Yo9fOr5NWa/l7Esi5OE4DZ65sQ1OXzGKiOtGeR9L0XV1g8t+09g9FIWY76ls/z1g3hqyz6sc8Hn65Jy3xblgxNVUAF8W8CIu+ZeuBvZeFDKxsYLm51AbKJDgKxE8BkebPVc6AkcIjx1KBupPfu7PREjnqXU3mHkpRNLvadOizX35LX62HjT9kVa46+xsS8i+KAWbhVduy2HJqFfMdVvhfPemntaHBifhgiLXsi6ZWAQJzRTn+CLXgC5BekzGc97ZsQVXR/KshAp+JTt7syINffC6k0h+FTjGgrB7DAAABiCSURBVLHwcsuhEYz4FtmttmjUVPBBztRU+TbzKfmZgi+aQSrVjsEzg65Xzbgv0nOloOZNL26gjJQp+Lq6fS8Vjj1b05g0dtuILjdVt6OyRyKVKrL2rdnt64rtSE5FGJR6Rls7MXzdV+mpwml0B6sXLVPQBQRhYBiDCiS++qH91IgoBzvew2fDu31pEN16ix+9Ndp1vbZOkYKqbt9cQ2Fq2NgCydpe7YleDI7PYUmsS6Yu5x8JlEMgNtEhIqtI8EGuWJ9C6IKlPsGndkhYWxjz9opV23udmsTtqGdgOYexAbG9luUh7ETP8WFkFzz5I7KwLYexsS8q+OxG1+vaDe4wobaeGz7eg3axmO2uvZ3oHRjD3GKwMVmZD9labbn4mMCNT9X2dnpbrBbsfqwXI9a2kKL3I27Bp6yottIaH0TvY2JfYbW92tN9GL6Ux4rfq3EzuGWfKldeA2mKp60WlNoKPple/zZe5suTIdyczKxcHfWeLaudGkRWbUXnjv2SjgqfJy7sBcrYEs3Z2nBgxllmpYjYkQJJlY3FOa8Mqe0Uj48GZ58X8Qxb2aumHXW7ypXY1GOFw0uA4UHTTGR+9Dnr9iIMnODDt4fMIm+IXZkWM0yja1ldJid2pFLwuntlGPZxLPXDpuzNqXvBF4TAMySwEwjEJjq2DEMKPrPbQQYpvRJFvTrypjo/Tp59jIBKic4Yo9oJQcUl+HYCi8g8RAqkyDv4Q5MQqHGXbpNQZDabjkDSosPoRjN2gjBNQcFn8qi7bxR8FZmEgq8MXBR8ZUBqzkso+JrT7sx1lQSSEHxr18cwrPYpNSZctBTtVqDgq9LQtb6dgq8iwhR8ZeCi4CsDUnNeQsHXnHZnrqskkITgM8SbM4g7sE6cL1/GPcZYL9+FDfQ1CfY1w0PBVxFaCr4ycFHwlQGpOS+h4GtOuzPXVRJIQnSold93WULPGbw/u4Tg1AAzYxR8Jo+6+0bBV5FJKPjKwEXBVwak5ryEgq857c5cV0kgCcFXZZJ3zO1kv2NMWXFGKPgqRsYbSMAlQMHnouABCZRPgKKjfFZxX0n2cRNtnPAo+BrHVkxp/RGg4Ks/mzBFDUCAoiM5I5F9cuyTjpmCL2kLMP5GJkDB18jWY9oTI0DRkRh6kH1y7JOOmYIvaQsw/kYmQMHXyNZj2hMjQNGRGHoKvuTQJx4zBV/iJmACGpgABV8DG49JT44ABR/ZJ0egeWOm4Gte2zPn1ROg4KueIUNoQgIUfMkZneyTY590zBR8SVuA8TcyAQq+RrYe054YAYqOxNCzSzc59InHTMGXuAmYgAYmQMHXwMZj0pMjQMFH9skRaN6YKfia1/bMefUEQgWfbsz4+aXrTSALsmAZYBlgGWAZYBlgGWjUMkDB9yULb6MWXqabZZdlgGWAZYBlgGWgvDIQKviqdxwyBBLY2QR0BbOzc1mfuSP7+rTLdqRK2Z5/JEACWyNAwbc1bryryQlQdCRXAMg+OfZJx0zBl7QFGH8jE6Dga2TrMe2JEaDoSAy9O642uRQw5qQIUPAlRZ7x7gQCFHw7wYrMw7YToODbduRuhGTvomi6Awq+pjM5MxwjAQq+GGEyqOYhQNGRnK3JPjn2ScdMwZe0BRh/IxOg4Gtk6zHtiRGg6EgMPbt0k0OfeMwUfImbgAloYAIUfA1sPCY9OQIUfGSfHIHmjZmCr3ltz5xXT4CCr3qGDKEJCVDwJWd0sk+OfdIxU/AlbQHG38gEKPga2XpMe2IEKDoSQ88u3eTQJx4zBV/iJmACGpgABV8DG49JT44ABR/ZJ0egeWOm4Gte2zPn1ROg4KueIUNoQgIUfMkZneyTY590zBR8SVuA8TcyAQq+RrYe054YAYqOxNCzSzc59InHTMGXuAmYgAYmQMHXwMZj0pMjQMFH9skRaN6YKfia1/bMefUEKPiqZ8gQmpBAQwu+zQ2srW40rNUamn3DUq+PhFPw1YcdmIrGJNCAgu8rjD9/EQ88n8OyYP7+uYt44KkreF+ca6TDRk9/I7GOI611IzqWs0inUkhfWik7WysTaaRSKfRNr5V9Tz1dWDfs6wlKk6SFgq9JDM1s1oRATQTf8lsTeOApJcCi/qsRZhUIvi9zeFyl4VyhJvDiDLQawRfF+8HeCRx5LYf3v/ouzqQ2YFibUHwff+ur2NJeC9GxcSeHsYFedO7dZQkyJcpaHu5E78AYcnciPHJbEHwbC8NoT7VjeCEizNgo2QGtXEojdSofW6jVs9/A3EALUqk0svKt0ZfCjblBtFQopn1B8GvMBOISfFaZTKWQSmextFkkkdcz1rOYuV7kGv5EAg1CoKaCr/2ld/Hya2H/N/D5lgFR8PnRacHn5903kMWDSvA+cxlv3C5Wq/lD3Gnfb+Hl/6pnwbeBwus92KUaoNQutB8ZxPCZYes/c7wbu1vt8z2vFxCQaFsQfNtr3TXM/DRVZ4IPwOIYupWgfjEXZKoAbRYwsjeF1N4RFJr50dnewlIyttgFX6oF6UtL0fFS8EWz4S8NR6Cmgu/kjVrwoODzU9WCL4z33b+8i3Yl+gY+wNf+G5vi+ybu3vyzxaBePXxLl9KWJ6nl0BgKYb2sm0uYfL4dqbDGqd4F3+oMBpVgrSsPnyr4G8if2oNUqhtjnwUfhLWpXov34FxAYgcv5pltIxCv4EsjnU4h1ZpG9k5EFij4IsDwdCMSSFjwFXCyWJfrjStWt7ApZGop+Dbx9c0PcFJ7xp66iAd7p3Dync/x9f0Q896/i+UbOZwcuIwfpp3u63QWj780jw+/CXMLfIfl+T/jyHNZfM/yvGXR/tKfMfvVd1aX41bHIBYTfMAq3n4pYnzj/X/gw4szaP9PL+0Hz32AQmjaAXz1EV596TK+/4x9/fefm8arV/8BwLajYadQ23kMi3Vh311cwMvCBlY882Hdsf9C4Z0rOHjM4WnZ6zIOnp7H7J27sPJ+2vvNGGJQZTd/9d2KDovVGfQpQVTKk7S5hKzVOPVhZtXjCCH4Nj6dROZIu+MpbMHu/YPI3gxRkMUasW+XMHeuF+0PKa+i6lLuRt/rOayEFWclmxbnMOp6IVNIPdSOnuMjyK0At3/b7aTFDkuFZ/2nsyh/xKHIq3MYN/uWn87AoLSRR+YRu7svLJ0rC2MY3L/bEum2RzaDyTDO397G5KledD6suo9tL237E70YHJ/DEnVk0LBlnIlX8A1i7lN7DGzLocnwMlnsWdlcQe71PnRr+7buRvfxUeSKDBMoI4u8hARqRoCCz0W7ic/fmrCE2IPPTuPltxYw+6ccXn7pstUt+r3/zuFzv+jb+Aj9z1zE9/tn8Kq6/upHuPybKfxQibned/Ghcb0X/veOTeHVdz7ywn9mAidfUeMetza2sbjg28T7r4QIvvtfYvy/beH2+Lkc3nbS/ogSc71X8P63Lhj74E4O+9Vvz1zGwd/cwOzVBYy/No329EXsPzdjjZWMQ/DdvXHF4icZnVSTdJ66iP1vfSkSdRcfvpa1zj9+eh6Xr36E2as38MYr02j/zyxe/kgplLtY/ugjzE7P4JGnLuKRVz6wbKTsNHtbqiYRbJmHcYkOPZaod8qQHKGp2JgPGVPmCL7OQ2m0t3ai70wWc/M5zF0aRt9jSmjswok/+sKOasS+zSOjujFVOK9PIjc/h+wpu6u55VBwrNPG9QzalZB5qAeDThf08FAfurvsbtC1T3PIzY+iV11zbBS5efU9h9zCUng3amiugyfjYq9CVqI0lWrHyE0vnqXx4Dn9q/bG7no6g+xsDrmpUYdzOzLXhYrbyGNYsVRsxhVLde0YrC76UuJeR8bPAIF4BZ89htMuAy1IT4TI+5LPym6kB8YwOZ/D5Pgg0pb485WFQC54ggSSIUDBp7nfnre6/X7wykc+b94mvp6fwQ+euoj23y/qq53PTdzd8E+I2MTnl+1JKyflOPXVD3BQCcHn/cLRE4I1EXz37fFrDzw3b4yb/PziZTzwVBb9V/9l5klzOFeA8pHZf6u4PKBE1wTG7/hcPVoIPnURVQs+R0AHGf0Ls6ed+LXmu19A/1MX8YM3bulERn86k3fqr0tXTR5Qnp80JkPamkCG1mbQp8ST9Eg5gk91TY5+6rvD9QoOIie0CEIbsQ3kXnQmMvi6t0InL3w7Z3fVpkdx2/9yYCQjj4xKc9116TqJdPPheB2d7y0Dc0FR6oz72zPkG/e3eRtjXSmkHskgrzlfVYP992DkYwMGv1RJoBaCD9p+rT7vuUprxLOiJ/2MBZqEJYxZnvhBzBV9LqoEwdtJYAsEKPgsaPYszgeemsLlUMePI3ieuYL3Da9dBPHb85ZHSQoMzwvnE0wqCC3KYvXwfYe7i5/gVUuoZXHyhhR2jggMHdfndAHLvDqC6Xuh3aCb+PAN29NWreD7+o9Tlgi1vXM+tn951xLdLtMdIfhW7G7aVAby3cCXc/HVEU+yS1QLvmOTZrekc5cSa6o70RiLFtaIOWJyT6iNCxjxdXHanskWlJ69WOeCD4Cdlz2Wh65wXo2VDB/XVzivxvz1YjKkjlib7rPG/Lk8KPhEuY3vsCaCTyXvM2cSj3yZUufDnhXnmQt/VgB8PII9nN0dn9EZUmwEair4jDFTyrvl/LuNtjP2K3LZlNBxYLUYw/clxv/PRTzwrOkFk5Rtr52a7SrPRhwHPEq6W3Uas9oDYNx61/FgVdelq/nKzwefncH4zX8ascFJ3yMBj6V9mT2+bgLj2pt2dcayXd//eD4/GeDd/5m2fq9W8NnxRjBy0uyVFa9Lt/2VD/Dhqt/TKlIYsIf4bYuH8XQrblHwSYGoG5/zEUsPhf0e1og55wxh6LIJpjM3pDyTgyg9p6H+BZ81I1cJ2r2d6GxNYc+pfNC7B4fBE2MIrQIcfu56iLpLt7UbmakC1kLe81y8PCibQM0EnxqJbIn9ltIvR5aY971EyRxs5myvdpiXWF7HYxLYZgI1FXz+ZUL0Ei1v5PUrcr1M2nDS4VvMWdrC89DJs9/h69sL1rixx5/NupMZtODyhK0jUot48IpNYpAxhh3rtEne/QPK6xbSZasCcIS0Tmf4pyf4dPiGoJMJCRPmYefEPcH8akbei0FouqQH6v4/8P4bE/bSM0+psZRXMH4jZHLHThN8IR4+V2gIxtahbnxkl2qI4NNjCd2JFaobNvCvPZFBAeiP1vveAIIPgPLQqTX3UmHdelZmnHwEmJicDDus5DDytLOmYutupE9lkeeAfq9obOGoloLPXYqnVXTHFnlWXG9uIB9OWZHPaeAaniCB7SdQU8EXKRDcfDay4PsX3n/tsjXJ45EX38X4nz7C7F+W8PU3q/j65rw1iWG7BZ/Be6OAk/8VNnnEE3zGJAZr0oOa+KD/P8Gy443cXsE3hVfdNOi0iM+wyRYbX+L9t67gcWem9IPP/xkfyvEzdSv44hvDZwgN9/lS02jnMKhESpmCr/dXzsQKPcHC+LztdBvvPMEHLYyHcpKeOHYa8Scy1gB9dwKKwSeHfMgC2Rt38u7kFzWJJnQ9RRETD6MJ1FTwqcfFWpQ8BXcMJwVftDH4S8MRqG/B53QlGkIGddKle+OKJfaCEzkA3LF3+PAEX6kuXf17dV26JidAjYlTy788fln3zTrl00lfVJduoBSX6NJFmJ2KevjC8qvPRXTpBhIVcuL+P1G4OGV5/IzJHHUr+PT4sRSqnaW7J6pL904WPakUjN9DGjGU6qYycGuhukO6dK28lfJELiH7kxRSUV26Bp+IL2sFjB1THj9O5oggVPJ0rQWftT7jGTWOcw8yVzfCx/CVelb0ywO7dEvakxdsL4GEBd8nOKmW+ojoSv3892omqW/2Z00EH/Dhr1QXaPmTNop5vfSYNk/wAfb1erkQv5EX8cazqiszXsGH+4t44zm1lMoU3ta96CpqPUnEN3PXnyr3uyOYDBHl/giE2ilvC2LJwLslPL9fv6MmbVxE/3z4WEHv/mJHznhMWabqWPBBr8PXNYaim6G4M259MwlLTNqwJxP4xhuFCb7VSWv5lMidJ3zI9USH0rNQSwkpX8BlfFWNflwNvxdd6XQWzjkLNftnZnqBlD5yBHikR7Z0CE19RVx2t8tvxNZ6enmiRzLIzYZsrVZ0ghMnbTR1Aa3zzCcs+PSiwCFC65sF9DkL/Jqeq1p4+AA9kSG4LAug14b74a+8JUDsGaUXceRPcvYrgG8LONlrj0MzxI4jOsLW87t71V72JXbBp1aiu3HFmt36g1fkMiuAvSzLRey/HLGt0HdyEoSepRyyLMu3BfSrrmO/MP/mBo6oSTqBmcCb+PpP05bnMZBfvSyLWgcwbPHn+98BpWZJ3/8cryrx/NINb2eRrz7A/qcuInyW8dae0DhFh7u227Gt77Sh1pIz1oFT2dLbg7VWsixLOzJXfev2aURy4oEWqumx4nuRIo9htbB0jOOZ4mSvswaUFnzudmwhaxJa4Ug+XsDm0aej6Eyl0Dcdwdi8mt98BLZF8Kmu3asZa6ZtezptrTVpjtfTu7SkEbYsS/ZQS5GxoL4M8SsJbCOBhAUfcDdvL7T7QHoCJ63Fi0ss6LsVD99z0xF7+r6Lt/+maW/i8ym7O/DB52fwhloYWS3ke9qeFBAQaqs3cMRYiPgjXL44Y40j++GZGWvNPUPwwVtvLxB+TRde1qI6i5f/Ilqk+186a+tdhErPyxdvYPadebz82oy9c4WcHKEQ6fX20hPoU9eqhZqd/O4/PW0tlmwKc28W7YPPX7HHOOqFrIvkVwlUa/FntcDzK3/G+J8WMP6bd9H/0gR+mPYmkgCf4OVjU+h7TV1jj/F7+613cfCYEp9ZnMxLL6FmcBGPv+Gk/Y+feIJQF4EKPuMVHWIvXWu1/kzFe+meOJVBu5oY4CwC6y28HCIEwzx8Ku/f5jFsLdbcgs6fZjB6aQ5zl0ahFlPu2bsLfq/U0kSvtZNGy8NpDL6exdzUGIbPDKJ3by+yYnKCnv3Y+f/GnEWh5xDxmlGWBeJlr6MsQ/AB0Hm2F5tWC+5OYuzMMAaPdGJ3q57UAmBhBJ1qT2TFxRrnN4fsmT5rFnBq77C3Xp+Onp9lEdguwae6dnNDyqNrT8oxBZ94VkIXOw955srKHS8igdoSSFzwAWo7sxz6ns96sy31ll3OWmumkNiCh08sCeOf+WmGHbG12luf+BZjdoyyuBC6Ddtd2F2WpuBT90RvrWaPg4u5S1eXHWcx5UDX+f1/4vM/ia3eFCdra7h3Mf4X2QfsBPTVR9aWZ4Gt1aLG66kxdW/N4HHH4/nAM/ZWcu+rfbqscX8R+f3qE4yfm/K2q1MzcJW4u7jgTiQBvsLsa9N4XGyrZqf9z3h70ed1Vcn/9hbecHZNUWXg+y/dgNAkmlTZn7UQHRt3chgb6EXnXmdmp7W1WSd6B8aQC5kMYCXW6tK1F26OZWu1zRXkL2XQG5KGuZA0rN1U27kpsePMVrW2VhtDQS4/tLmEuVNp95pde0fLXHcw3By1YF+Wh89Jztpnvu3kUrvQ/nQfhi8VvLUQl+cwfLxHbKuWwq69Peh7fQ5LckJReBZ5NoLA9gk+VWc4i4unUuHrTUZsrTa3KAt/REZ4mgQSIFATwZdAPhhlkgSiBF+Saapx3LURHTVOtA4+ysOnf6/zz4ZmX+ds6z15cQm+es8n00cCtSBAwVcLqs0WJgVfY1mcgq+x7MXUugQo+FwUPCCBiglQ8FWMbDtucNYnLNIVrbolg13G25G2kDgo+EKg1O+ptalee2mQm/WbxmIpo4evGJ2d/RsF3862L3NXWwIUfLXlu8XQV1Eotviw89uHd+TEhC1GFcdtFHxxUKxtGIszGJvKITc1gp6H1DZiIyiIOTy1jTze0Cn44uXZSKFR8DWStZjWeiNAwVdvFmnE9FDw1b/VFkacSRMt2L1/EJPVrCWXcG4p+BI2QILRU/AlCJ9RNzwBCr6GNyEzkAQBio4kqNtxkn1y7JOOmYIvaQsw/kYmQMHXyNZj2hMjQNGRGHprlw02/MnxTzJm2j1J+oy70QlQ8DW6BZn+RAhQ8CWC3YqU7JNjn3TMFHxJW4DxNzIBCr5Gth7TnhgBio7E0NPDlxz6xGOm4EvcBExAAxOg4Gtg4zHpyRGg4CP75Ag0b8wUfM1re+a8egIUfNUzZAhNSICCLzmjk31y7JOOmYIvaQsw/kYmQMHXyNZj2hMjQNGRGHp26SaHPvGYKfgSNwET0MAEKPga2HhMenIEKPjIPjkCzRszBV/z2p45r54ABV/1DBlCExKg4EvO6GSfHPukY6bgS9oCjL+RCVDwNbL1mPbECFB0JIaeXbrJoU88Zgq+xE3ABDQwgYDg0w0ZP790GxayIAuWAZYBlgGWAZYBloFGLgP/H3Qq3+/f8D1FAAAAAElFTkSuQmCC;imageBorder=#66FF66;" vertex="1" parent="1">
          <mxGeometry x="10" y="300" width="670" height="167.5" as="geometry" />
        </mxCell>
        <mxCell id="1ZUipxkFyyNhmukYOwCt-1" value="It doesn&#39;t support rating for multiple shipments in one request as SMC3 does" style="text;html=1;strokeColor=#b85450;fillColor=#f8cecc;align=left;verticalAlign=middle;whiteSpace=wrap;rounded=0;fontSize=15;" vertex="1" parent="1">
          <mxGeometry x="10" y="240" width="670" height="40" as="geometry" />
        </mxCell>
        <mxCell id="1ZUipxkFyyNhmukYOwCt-4" value="" style="curved=1;endArrow=classic;html=1;fontSize=15;entryX=0.485;entryY=1;entryDx=0;entryDy=0;entryPerimeter=0;" edge="1" parent="1" target="1ZUipxkFyyNhmukYOwCt-1">
          <mxGeometry width="50" height="50" relative="1" as="geometry">
            <mxPoint x="500" y="380" as="sourcePoint" />
            <mxPoint x="430" y="340" as="targetPoint" />
            <Array as="points">
              <mxPoint x="480" y="330" />
              <mxPoint x="380" y="340" />
            </Array>
          </mxGeometry>
        </mxCell>
        <mxCell id="1ZUipxkFyyNhmukYOwCt-5" value="https://docs.banyantechnology.com/#fullload_request" style="text;html=1;align=center;verticalAlign=middle;resizable=0;points=[];autosize=1;strokeColor=#9673a6;fontSize=15;fillColor=#e1d5e7;" vertex="1" parent="1">
          <mxGeometry x="10" y="480" width="370" height="20" as="geometry" />
        </mxCell>
      </root>
    </mxGraphModel>
  </diagram>
  <diagram name="02 /services/api/rest/GetQuotes" id="FWxIg1FBerBXyO7mredP">
    <mxGraphModel dx="1022" dy="444" grid="1" gridSize="10" guides="1" tooltips="1" connect="1" arrows="1" fold="1" page="1" pageScale="1" pageWidth="1100" pageHeight="850" math="0" shadow="0">
      <root>
        <mxCell id="3qYp3PzX7lrmJIjdqvdg-0" />
        <mxCell id="3qYp3PzX7lrmJIjdqvdg-1" parent="3qYp3PzX7lrmJIjdqvdg-0" />
        <mxCell id="3qYp3PzX7lrmJIjdqvdg-2" value="{{host}}/services/api/rest/GetQuotes" style="swimlane;fontStyle=1;childLayout=stackLayout;horizontal=1;startSize=26;horizontalStack=0;resizeParent=1;resizeParentMax=0;resizeLast=0;collapsible=1;marginBottom=0;fontColor=#FF0080;" vertex="1" parent="3qYp3PzX7lrmJIjdqvdg-1">
          <mxGeometry width="520" height="52" as="geometry" />
        </mxCell>
        <mxCell id="3qYp3PzX7lrmJIjdqvdg-3" value="This function will retrieve all the valid quotes for a given shipment." style="text;strokeColor=#6c8ebf;fillColor=#dae8fc;align=left;verticalAlign=top;spacingLeft=4;spacingRight=4;overflow=hidden;rotatable=0;points=[[0,0.5],[1,0.5]];portConstraint=eastwest;" vertex="1" parent="3qYp3PzX7lrmJIjdqvdg-2">
          <mxGeometry y="26" width="520" height="26" as="geometry" />
        </mxCell>
        <mxCell id="3qYp3PzX7lrmJIjdqvdg-6" style="edgeStyle=orthogonalEdgeStyle;rounded=0;orthogonalLoop=1;jettySize=auto;html=1;" edge="1" parent="3qYp3PzX7lrmJIjdqvdg-1" source="3qYp3PzX7lrmJIjdqvdg-7">
          <mxGeometry relative="1" as="geometry">
            <Array as="points">
              <mxPoint x="320" y="230" />
              <mxPoint x="320" y="255" />
            </Array>
            <mxPoint x="400" y="255" as="targetPoint" />
          </mxGeometry>
        </mxCell>
        <mxCell id="3qYp3PzX7lrmJIjdqvdg-7" value="Shipment" style="rounded=0;whiteSpace=wrap;html=1;fillColor=#d5e8d4;strokeColor=#82b366;" vertex="1" parent="3qYp3PzX7lrmJIjdqvdg-1">
          <mxGeometry x="10" y="200" width="230" height="60" as="geometry" />
        </mxCell>
        <mxCell id="3qYp3PzX7lrmJIjdqvdg-8" value="Turvo" style="text;html=1;align=center;verticalAlign=middle;resizable=0;points=[];autosize=1;strokeColor=none;fontColor=#FF0080;" vertex="1" parent="3qYp3PzX7lrmJIjdqvdg-1">
          <mxGeometry x="100" y="180" width="50" height="20" as="geometry" />
        </mxCell>
        <mxCell id="3qYp3PzX7lrmJIjdqvdg-9" value="1 LoadID" style="text;html=1;strokeColor=none;fillColor=none;align=center;verticalAlign=middle;whiteSpace=wrap;rounded=0;fontColor=#FF0080;" vertex="1" parent="3qYp3PzX7lrmJIjdqvdg-1">
          <mxGeometry x="240" y="210" width="130" height="20" as="geometry" />
        </mxCell>
        <mxCell id="3qYp3PzX7lrmJIjdqvdg-10" value="Banyan" style="swimlane;fontColor=#FF0080;startSize=23;" vertex="1" parent="3qYp3PzX7lrmJIjdqvdg-1">
          <mxGeometry x="370" y="120" width="460" height="330" as="geometry" />
        </mxCell>
        <mxCell id="3qYp3PzX7lrmJIjdqvdg-11" style="edgeStyle=orthogonalEdgeStyle;rounded=0;orthogonalLoop=1;jettySize=auto;html=1;entryX=0.5;entryY=0;entryDx=0;entryDy=0;" edge="1" parent="3qYp3PzX7lrmJIjdqvdg-10" target="3qYp3PzX7lrmJIjdqvdg-13">
          <mxGeometry relative="1" as="geometry">
            <mxPoint x="140" y="70" as="sourcePoint" />
          </mxGeometry>
        </mxCell>
        <mxCell id="3qYp3PzX7lrmJIjdqvdg-16" style="edgeStyle=orthogonalEdgeStyle;rounded=0;orthogonalLoop=1;jettySize=auto;html=1;entryX=0.856;entryY=0;entryDx=0;entryDy=0;entryPerimeter=0;" edge="1" parent="3qYp3PzX7lrmJIjdqvdg-1" target="3qYp3PzX7lrmJIjdqvdg-15">
          <mxGeometry relative="1" as="geometry">
            <Array as="points">
              <mxPoint x="640" y="255" />
              <mxPoint x="640" y="260" />
              <mxPoint x="714" y="260" />
            </Array>
            <mxPoint x="620" y="255" as="sourcePoint" />
          </mxGeometry>
        </mxCell>
        <mxCell id="3qYp3PzX7lrmJIjdqvdg-17" style="edgeStyle=orthogonalEdgeStyle;rounded=0;orthogonalLoop=1;jettySize=auto;html=1;entryX=0.461;entryY=1.1;entryDx=0;entryDy=0;entryPerimeter=0;" edge="1" parent="3qYp3PzX7lrmJIjdqvdg-1" target="3qYp3PzX7lrmJIjdqvdg-7">
          <mxGeometry relative="1" as="geometry">
            <mxPoint x="400" y="335" as="sourcePoint" />
          </mxGeometry>
        </mxCell>
        <mxCell id="3qYp3PzX7lrmJIjdqvdg-52" value="{&lt;br&gt;&lt;span&gt;	&lt;/span&gt;&quot;Quotes&quot;:[&lt;br&gt;&lt;blockquote style=&quot;margin: 0 0 0 40px ; border: none ; padding: 0px&quot;&gt;&lt;span&gt;&lt;span style=&quot;white-space: pre&quot;&gt;	&lt;/span&gt;{&lt;span&gt;	&lt;/span&gt;&lt;/span&gt;&lt;/blockquote&gt;&lt;blockquote style=&quot;margin: 0 0 0 40px ; border: none ; padding: 0px&quot;&gt;&lt;span&gt;&lt;br/&gt;&lt;/span&gt;&lt;span&gt;	&lt;/span&gt;&lt;span&gt;	&lt;/span&gt;&lt;span&gt;	&lt;/span&gt;&lt;span style=&quot;white-space: pre&quot;&gt;	&lt;/span&gt;&lt;span style=&quot;white-space: pre&quot;&gt;	&lt;/span&gt;&quot;LoadID&quot;: &quot;SameAsPassed&quot;,&lt;br&gt;&lt;span&gt;&lt;span style=&quot;white-space: pre&quot;&gt;	&lt;/span&gt;&lt;span style=&quot;white-space: pre&quot;&gt;	&lt;/span&gt;&quot;&lt;/span&gt;QuoteID&quot;: &quot;DifferentForEachQuote&quot;&lt;/blockquote&gt;&lt;span&gt;	&lt;/span&gt;&lt;span&gt;	&lt;/span&gt;&lt;span style=&quot;white-space: pre&quot;&gt;	&lt;/span&gt;&lt;span style=&quot;white-space: pre&quot;&gt;	&amp;nbsp;&lt;/span&gt;&amp;nbsp; &amp;nbsp; },&lt;br&gt;&lt;span&gt;	&lt;/span&gt;&lt;span&gt;	&lt;/span&gt;&lt;span style=&quot;white-space: pre&quot;&gt;&lt;span style=&quot;white-space: pre&quot;&gt;	&lt;/span&gt;&lt;span style=&quot;white-space: pre&quot;&gt;	&lt;/span&gt;    {	&lt;br/&gt;&lt;/span&gt;&lt;span style=&quot;white-space: pre&quot;&gt;	&lt;/span&gt;&lt;span style=&quot;white-space: pre&quot;&gt;	&lt;/span&gt;&lt;span style=&quot;white-space: pre&quot;&gt;	&lt;/span&gt;&quot;LoadID&quot;: &quot;SameAsPassed&quot;,&lt;br&gt;&lt;span style=&quot;white-space: pre&quot;&gt;	&lt;/span&gt;&lt;span style=&quot;white-space: pre&quot;&gt;	&lt;span&gt;	&lt;/span&gt;&quot;&lt;/span&gt;QuoteID&quot;: &quot;DifferentForEachQuote&quot;&lt;br&gt;&lt;span style=&quot;white-space: pre&quot;&gt;	&lt;/span&gt;&lt;span style=&quot;white-space: pre&quot;&gt;	&lt;/span&gt;&amp;nbsp; &amp;nbsp; },&lt;br&gt;&lt;span&gt;	&lt;/span&gt;&lt;span style=&quot;white-space: pre&quot;&gt;	&lt;/span&gt;&lt;span style=&quot;white-space: pre&quot;&gt;	&lt;/span&gt;]&lt;br&gt;}" style="rounded=0;whiteSpace=wrap;html=1;fillColor=#f8cecc;strokeColor=#b85450;align=left;" vertex="1" parent="3qYp3PzX7lrmJIjdqvdg-1">
          <mxGeometry x="400" y="160" width="400" height="240" as="geometry" />
        </mxCell>
        <mxCell id="3qYp3PzX7lrmJIjdqvdg-53" value="2. A set of Quotes" style="text;html=1;strokeColor=none;fillColor=none;align=center;verticalAlign=middle;whiteSpace=wrap;rounded=0;fontColor=#FF0080;" vertex="1" parent="3qYp3PzX7lrmJIjdqvdg-1">
          <mxGeometry x="120" y="310" width="130" height="20" as="geometry" />
        </mxCell>
        <mxCell id="3qYp3PzX7lrmJIjdqvdg-57" value="Just Pass the LoadID created by Banyan for shipment." style="text;strokeColor=#6c8ebf;fillColor=#dae8fc;align=left;verticalAlign=top;spacingLeft=4;spacingRight=4;overflow=hidden;rotatable=0;points=[[0,0.5],[1,0.5]];portConstraint=eastwest;" vertex="1" parent="3qYp3PzX7lrmJIjdqvdg-1">
          <mxGeometry y="52" width="520" height="26" as="geometry" />
        </mxCell>
      </root>
    </mxGraphModel>
  </diagram>
  <diagram name="03. /services/api/rest/ImportForQuote_Sync" id="VW07h3cwKVJhl0lstl71">
    <mxGraphModel dx="1022" dy="478" grid="1" gridSize="10" guides="1" tooltips="1" connect="1" arrows="1" fold="1" page="1" pageScale="1" pageWidth="1100" pageHeight="850" math="0" shadow="0">
      <root>
        <mxCell id="U-g3pxEUER873NjEjKzG-0" />
        <mxCell id="U-g3pxEUER873NjEjKzG-1" parent="U-g3pxEUER873NjEjKzG-0" />
        <mxCell id="U-g3pxEUER873NjEjKzG-2" value="POSTÂ {{host}}/services/api/rest/ImportForQuote" style="swimlane;fontStyle=1;childLayout=stackLayout;horizontal=1;startSize=26;horizontalStack=0;resizeParent=1;resizeParentMax=0;resizeLast=0;collapsible=1;marginBottom=0;fontColor=#FF0080;" vertex="1" parent="U-g3pxEUER873NjEjKzG-1">
          <mxGeometry y="40" width="520" height="118" as="geometry" />
        </mxCell>
        <mxCell id="U-g3pxEUER873NjEjKzG-3" value="Import a shipment in the Banyan system." style="text;strokeColor=#6c8ebf;fillColor=#dae8fc;align=left;verticalAlign=top;spacingLeft=4;spacingRight=4;overflow=hidden;rotatable=0;points=[[0,0.5],[1,0.5]];portConstraint=eastwest;" vertex="1" parent="U-g3pxEUER873NjEjKzG-2">
          <mxGeometry y="26" width="520" height="26" as="geometry" />
        </mxCell>
        <mxCell id="U-g3pxEUER873NjEjKzG-4" value="Initiate the rating process and will return a response immediately" style="text;strokeColor=#82b366;fillColor=#d5e8d4;align=left;verticalAlign=top;spacingLeft=4;spacingRight=4;overflow=hidden;rotatable=0;points=[[0,0.5],[1,0.5]];portConstraint=eastwest;" vertex="1" parent="U-g3pxEUER873NjEjKzG-2">
          <mxGeometry y="52" width="520" height="26" as="geometry" />
        </mxCell>
        <mxCell id="U-g3pxEUER873NjEjKzG-5" value="Following this request would be a loop of calling GetQuotes to return the quotes on the created shipment" style="text;strokeColor=#9673a6;fillColor=#e1d5e7;align=left;verticalAlign=top;spacingLeft=4;spacingRight=4;overflow=hidden;rotatable=0;points=[[0,0.5],[1,0.5]];portConstraint=eastwest;whiteSpace=wrap;" vertex="1" parent="U-g3pxEUER873NjEjKzG-2">
          <mxGeometry y="78" width="520" height="40" as="geometry" />
        </mxCell>
        <mxCell id="U-g3pxEUER873NjEjKzG-6" style="edgeStyle=orthogonalEdgeStyle;rounded=0;orthogonalLoop=1;jettySize=auto;html=1;" edge="1" parent="U-g3pxEUER873NjEjKzG-1" source="U-g3pxEUER873NjEjKzG-7" target="U-g3pxEUER873NjEjKzG-12">
          <mxGeometry relative="1" as="geometry">
            <Array as="points">
              <mxPoint x="320" y="230" />
              <mxPoint x="320" y="245" />
            </Array>
          </mxGeometry>
        </mxCell>
        <mxCell id="U-g3pxEUER873NjEjKzG-7" value="Shipment" style="rounded=0;whiteSpace=wrap;html=1;fillColor=#d5e8d4;strokeColor=#82b366;" vertex="1" parent="U-g3pxEUER873NjEjKzG-1">
          <mxGeometry x="10" y="200" width="230" height="60" as="geometry" />
        </mxCell>
        <mxCell id="U-g3pxEUER873NjEjKzG-8" value="Turvo" style="text;html=1;align=center;verticalAlign=middle;resizable=0;points=[];autosize=1;strokeColor=none;fontColor=#FF0080;" vertex="1" parent="U-g3pxEUER873NjEjKzG-1">
          <mxGeometry x="100" y="180" width="50" height="20" as="geometry" />
        </mxCell>
        <mxCell id="U-g3pxEUER873NjEjKzG-9" value="1. Importing Shipment" style="text;html=1;strokeColor=none;fillColor=none;align=center;verticalAlign=middle;whiteSpace=wrap;rounded=0;fontColor=#FF0080;" vertex="1" parent="U-g3pxEUER873NjEjKzG-1">
          <mxGeometry x="240" y="210" width="130" height="20" as="geometry" />
        </mxCell>
        <mxCell id="U-g3pxEUER873NjEjKzG-10" value="Banyan" style="swimlane;fontColor=#FF0080;startSize=23;" vertex="1" parent="U-g3pxEUER873NjEjKzG-1">
          <mxGeometry x="370" y="200" width="470" height="440" as="geometry" />
        </mxCell>
        <mxCell id="LS-Lc405rFHRBbfT6CRn-0" style="edgeStyle=orthogonalEdgeStyle;rounded=0;orthogonalLoop=1;jettySize=auto;html=1;entryX=0.5;entryY=0;entryDx=0;entryDy=0;" edge="1" parent="U-g3pxEUER873NjEjKzG-10" source="U-g3pxEUER873NjEjKzG-12" target="U-g3pxEUER873NjEjKzG-15">
          <mxGeometry relative="1" as="geometry" />
        </mxCell>
        <mxCell id="U-g3pxEUER873NjEjKzG-12" value="Importing Shipment" style="rounded=0;whiteSpace=wrap;html=1;fillColor=#dae8fc;strokeColor=#6c8ebf;" vertex="1" parent="U-g3pxEUER873NjEjKzG-10">
          <mxGeometry x="30" y="40" width="240" height="40" as="geometry" />
        </mxCell>
        <mxCell id="LS-Lc405rFHRBbfT6CRn-1" style="edgeStyle=orthogonalEdgeStyle;rounded=0;orthogonalLoop=1;jettySize=auto;html=1;" edge="1" parent="U-g3pxEUER873NjEjKzG-10" source="U-g3pxEUER873NjEjKzG-15">
          <mxGeometry relative="1" as="geometry">
            <mxPoint x="150" y="190" as="targetPoint" />
          </mxGeometry>
        </mxCell>
        <mxCell id="U-g3pxEUER873NjEjKzG-15" value="Rate Process starts&amp;nbsp;" style="rounded=0;whiteSpace=wrap;html=1;fillColor=#dae8fc;strokeColor=#6c8ebf;" vertex="1" parent="U-g3pxEUER873NjEjKzG-10">
          <mxGeometry x="30" y="120" width="240" height="40" as="geometry" />
        </mxCell>
        <mxCell id="U-g3pxEUER873NjEjKzG-17" style="edgeStyle=orthogonalEdgeStyle;rounded=0;orthogonalLoop=1;jettySize=auto;html=1;entryX=0.461;entryY=1.1;entryDx=0;entryDy=0;entryPerimeter=0;" edge="1" parent="U-g3pxEUER873NjEjKzG-1" target="U-g3pxEUER873NjEjKzG-7">
          <mxGeometry relative="1" as="geometry">
            <mxPoint x="400" y="417.5" as="sourcePoint" />
          </mxGeometry>
        </mxCell>
        <mxCell id="U-g3pxEUER873NjEjKzG-18" value="2. A set of Quotes" style="text;html=1;strokeColor=none;fillColor=none;align=center;verticalAlign=middle;whiteSpace=wrap;rounded=0;fontColor=#FF0080;" vertex="1" parent="U-g3pxEUER873NjEjKzG-1">
          <mxGeometry x="190" y="380" width="120" height="20" as="geometry" />
        </mxCell>
        <mxCell id="rtPEkSFmFEGh6jgvNy1m-0" value="{&lt;br&gt;&lt;span style=&quot;white-space: pre&quot;&gt;	&lt;/span&gt;&amp;nbsp; &amp;nbsp; ...,&lt;br&gt;&lt;span&gt;	&lt;/span&gt;&lt;blockquote style=&quot;margin: 0 0 0 40px ; border: none ; padding: 0px&quot;&gt;&quot;Quotes&quot;:[&lt;blockquote style=&quot;margin: 0 0 0 40px ; border: none ; padding: 0px&quot;&gt;&lt;span&gt;&lt;span style=&quot;white-space: pre&quot;&gt;	&lt;/span&gt;{&lt;/span&gt;&lt;/blockquote&gt;&lt;blockquote style=&quot;margin: 0 0 0 40px ; border: none ; padding: 0px&quot;&gt;&lt;span&gt;&lt;br&gt;&lt;/span&gt;&lt;/blockquote&gt;&lt;blockquote style=&quot;margin: 0 0 0 40px ; border: none ; padding: 0px&quot;&gt;&lt;span style=&quot;white-space: pre&quot;&gt;	&lt;/span&gt;&lt;span style=&quot;white-space: pre&quot;&gt;	&lt;/span&gt;&quot;LoadID&quot;: &quot;SameAsPassed&quot;,&lt;/blockquote&gt;&lt;blockquote style=&quot;margin: 0 0 0 40px ; border: none ; padding: 0px&quot;&gt;&lt;span&gt;&lt;span style=&quot;white-space: pre&quot;&gt;	&lt;/span&gt;&lt;span style=&quot;white-space: pre&quot;&gt;	&lt;/span&gt;&quot;&lt;/span&gt;QuoteID&quot;: &quot;DifferentForEachQuote&quot;&lt;/blockquote&gt;&lt;span style=&quot;white-space: pre&quot;&gt;	&lt;/span&gt;&lt;span style=&quot;white-space: pre&quot;&gt;	&amp;nbsp;&lt;/span&gt;&amp;nbsp; &amp;nbsp; },&lt;br&gt;&lt;span style=&quot;white-space: pre&quot;&gt;&lt;span style=&quot;white-space: pre&quot;&gt;	&lt;/span&gt;&lt;span style=&quot;white-space: pre&quot;&gt;	&lt;/span&gt;    {	&lt;br&gt;&lt;/span&gt;&lt;span style=&quot;white-space: pre&quot;&gt;	&lt;/span&gt;&lt;span style=&quot;white-space: pre&quot;&gt;	&lt;/span&gt;&lt;span style=&quot;white-space: pre&quot;&gt;	&lt;/span&gt;&quot;LoadID&quot;: &quot;SameAsPassed&quot;,&lt;br&gt;&lt;span style=&quot;white-space: pre&quot;&gt;	&lt;/span&gt;&lt;span style=&quot;white-space: pre&quot;&gt;	&lt;span&gt;	&lt;/span&gt;&quot;&lt;/span&gt;QuoteID&quot;: &quot;DifferentForEachQuote&quot;&lt;br&gt;&lt;span style=&quot;white-space: pre&quot;&gt;	&lt;/span&gt;&lt;span style=&quot;white-space: pre&quot;&gt;	&lt;/span&gt;&amp;nbsp; &amp;nbsp; },&lt;br&gt;&lt;span style=&quot;white-space: pre&quot;&gt;	&lt;/span&gt;&lt;span style=&quot;white-space: pre&quot;&gt;	&lt;/span&gt;]&lt;/blockquote&gt;}" style="rounded=0;whiteSpace=wrap;html=1;fillColor=#f8cecc;strokeColor=#b85450;align=left;" vertex="1" parent="U-g3pxEUER873NjEjKzG-1">
          <mxGeometry x="400" y="390" width="400" height="240" as="geometry" />
        </mxCell>
      </root>
    </mxGraphModel>
  </diagram>
  <diagram id="dOh_V104mQJpr9CTCbcv" name="Page-4">
    <mxGraphModel dx="1022" dy="478" grid="1" gridSize="10" guides="1" tooltips="1" connect="1" arrows="1" fold="1" page="1" pageScale="1" pageWidth="1100" pageHeight="850" math="0" shadow="0">
      <root>
        <mxCell id="rXdjp0I8evFBmd4U9B_b-0" />
        <mxCell id="rXdjp0I8evFBmd4U9B_b-1" parent="rXdjp0I8evFBmd4U9B_b-0" />
        <mxCell id="rXdjp0I8evFBmd4U9B_b-2" value="" style="shape=table;startSize=0;container=1;collapsible=0;childLayout=tableLayout;" vertex="1" parent="rXdjp0I8evFBmd4U9B_b-1">
          <mxGeometry x="25" y="270" width="520" height="40" as="geometry" />
        </mxCell>
        <mxCell id="rXdjp0I8evFBmd4U9B_b-3" value="" style="shape=partialRectangle;collapsible=0;dropTarget=0;pointerEvents=0;fillColor=none;top=0;left=0;bottom=0;right=0;points=[[0,0.5],[1,0.5]];portConstraint=eastwest;" vertex="1" parent="rXdjp0I8evFBmd4U9B_b-2">
          <mxGeometry width="520" height="40" as="geometry" />
        </mxCell>
        <mxCell id="rXdjp0I8evFBmd4U9B_b-4" value="&lt;b&gt;P44Credentials&lt;/b&gt;" style="shape=partialRectangle;html=1;whiteSpace=wrap;connectable=0;overflow=hidden;fillColor=#ffe6cc;top=0;left=0;bottom=0;right=0;strokeColor=#d79b00;" vertex="1" parent="rXdjp0I8evFBmd4U9B_b-3">
          <mxGeometry width="260" height="40" as="geometry" />
        </mxCell>
        <mxCell id="rXdjp0I8evFBmd4U9B_b-5" value="&lt;b&gt;AuthenticationData&lt;/b&gt;" style="shape=partialRectangle;html=1;whiteSpace=wrap;connectable=0;overflow=hidden;fillColor=#f8cecc;top=0;left=0;bottom=0;right=0;strokeColor=#b85450;" vertex="1" parent="rXdjp0I8evFBmd4U9B_b-3">
          <mxGeometry x="260" width="260" height="40" as="geometry" />
        </mxCell>
        <mxCell id="rXdjp0I8evFBmd4U9B_b-6" value="" style="shape=table;startSize=0;container=1;collapsible=0;childLayout=tableLayout;" vertex="1" parent="rXdjp0I8evFBmd4U9B_b-1">
          <mxGeometry x="25" y="350" width="520" height="40" as="geometry" />
        </mxCell>
        <mxCell id="rXdjp0I8evFBmd4U9B_b-7" value="" style="shape=partialRectangle;collapsible=0;dropTarget=0;pointerEvents=0;fillColor=none;top=0;left=0;bottom=0;right=0;points=[[0,0.5],[1,0.5]];portConstraint=eastwest;" vertex="1" parent="rXdjp0I8evFBmd4U9B_b-6">
          <mxGeometry width="520" height="40" as="geometry" />
        </mxCell>
        <mxCell id="rXdjp0I8evFBmd4U9B_b-8" value="" style="shape=partialRectangle;html=1;whiteSpace=wrap;connectable=0;overflow=hidden;fillColor=#ffe6cc;top=0;left=0;bottom=0;right=0;strokeColor=#d79b00;" vertex="1" parent="rXdjp0I8evFBmd4U9B_b-7">
          <mxGeometry width="260" height="40" as="geometry" />
        </mxCell>
        <mxCell id="rXdjp0I8evFBmd4U9B_b-9" value="&lt;b&gt;Loadinfo&lt;/b&gt;" style="shape=partialRectangle;html=1;whiteSpace=wrap;connectable=0;overflow=hidden;fillColor=#f8cecc;top=0;left=0;bottom=0;right=0;strokeColor=#b85450;" vertex="1" parent="rXdjp0I8evFBmd4U9B_b-7">
          <mxGeometry x="260" width="260" height="40" as="geometry" />
        </mxCell>
        <mxCell id="rXdjp0I8evFBmd4U9B_b-10" value="" style="shape=table;startSize=0;container=1;collapsible=0;childLayout=tableLayout;" vertex="1" parent="rXdjp0I8evFBmd4U9B_b-1">
          <mxGeometry x="25" y="430" width="520" height="120" as="geometry" />
        </mxCell>
        <mxCell id="rXdjp0I8evFBmd4U9B_b-11" value="" style="shape=partialRectangle;collapsible=0;dropTarget=0;pointerEvents=0;fillColor=none;top=0;left=0;bottom=0;right=0;points=[[0,0.5],[1,0.5]];portConstraint=eastwest;" vertex="1" parent="rXdjp0I8evFBmd4U9B_b-10">
          <mxGeometry width="520" height="40" as="geometry" />
        </mxCell>
        <mxCell id="rXdjp0I8evFBmd4U9B_b-12" value="" style="shape=partialRectangle;html=1;whiteSpace=wrap;connectable=0;overflow=hidden;fillColor=#ffe6cc;top=0;left=0;bottom=0;right=0;strokeColor=#d79b00;" vertex="1" parent="rXdjp0I8evFBmd4U9B_b-11">
          <mxGeometry width="260" height="40" as="geometry" />
        </mxCell>
        <mxCell id="rXdjp0I8evFBmd4U9B_b-13" value="&lt;b&gt;BillTo&lt;/b&gt;" style="shape=partialRectangle;html=1;whiteSpace=wrap;connectable=0;overflow=hidden;fillColor=#f8cecc;top=0;left=0;bottom=0;right=0;strokeColor=#b85450;" vertex="1" parent="rXdjp0I8evFBmd4U9B_b-11">
          <mxGeometry x="260" width="260" height="40" as="geometry" />
        </mxCell>
        <mxCell id="rXdjp0I8evFBmd4U9B_b-14" style="shape=partialRectangle;collapsible=0;dropTarget=0;pointerEvents=0;fillColor=none;top=0;left=0;bottom=0;right=0;points=[[0,0.5],[1,0.5]];portConstraint=eastwest;" vertex="1" parent="rXdjp0I8evFBmd4U9B_b-10">
          <mxGeometry y="40" width="520" height="40" as="geometry" />
        </mxCell>
        <mxCell id="rXdjp0I8evFBmd4U9B_b-15" value="&lt;b&gt;LTLAddress&lt;/b&gt;" style="shape=partialRectangle;html=1;whiteSpace=wrap;connectable=0;overflow=hidden;fillColor=#ffe6cc;top=0;left=0;bottom=0;right=0;strokeColor=#d79b00;" vertex="1" parent="rXdjp0I8evFBmd4U9B_b-14">
          <mxGeometry width="260" height="40" as="geometry" />
        </mxCell>
        <mxCell id="rXdjp0I8evFBmd4U9B_b-16" value="&lt;b&gt;AddressInfo&lt;/b&gt;" style="shape=partialRectangle;html=1;whiteSpace=wrap;connectable=0;overflow=hidden;fillColor=#f8cecc;top=0;left=0;bottom=0;right=0;strokeColor=#b85450;" vertex="1" parent="rXdjp0I8evFBmd4U9B_b-14">
          <mxGeometry x="260" width="260" height="40" as="geometry" />
        </mxCell>
        <mxCell id="rXdjp0I8evFBmd4U9B_b-17" style="shape=partialRectangle;collapsible=0;dropTarget=0;pointerEvents=0;fillColor=none;top=0;left=0;bottom=0;right=0;points=[[0,0.5],[1,0.5]];portConstraint=eastwest;" vertex="1" parent="rXdjp0I8evFBmd4U9B_b-10">
          <mxGeometry y="80" width="520" height="40" as="geometry" />
        </mxCell>
        <mxCell id="rXdjp0I8evFBmd4U9B_b-18" value="&lt;b&gt;LTLContact&lt;/b&gt;" style="shape=partialRectangle;html=1;whiteSpace=wrap;connectable=0;overflow=hidden;fillColor=#ffe6cc;top=0;left=0;bottom=0;right=0;strokeColor=#d79b00;" vertex="1" parent="rXdjp0I8evFBmd4U9B_b-17">
          <mxGeometry width="260" height="40" as="geometry" />
        </mxCell>
        <mxCell id="rXdjp0I8evFBmd4U9B_b-19" value="&lt;b&gt;ContactInfo&lt;/b&gt;" style="shape=partialRectangle;html=1;whiteSpace=wrap;connectable=0;overflow=hidden;fillColor=#f8cecc;top=0;left=0;bottom=0;right=0;strokeColor=#b85450;" vertex="1" parent="rXdjp0I8evFBmd4U9B_b-17">
          <mxGeometry x="260" width="260" height="40" as="geometry" />
        </mxCell>
        <mxCell id="rXdjp0I8evFBmd4U9B_b-20" value="" style="shape=table;startSize=0;container=1;collapsible=0;childLayout=tableLayout;" vertex="1" parent="rXdjp0I8evFBmd4U9B_b-1">
          <mxGeometry x="25" y="590" width="520" height="40" as="geometry" />
        </mxCell>
        <mxCell id="rXdjp0I8evFBmd4U9B_b-21" value="" style="shape=partialRectangle;collapsible=0;dropTarget=0;pointerEvents=0;fillColor=none;top=0;left=0;bottom=0;right=0;points=[[0,0.5],[1,0.5]];portConstraint=eastwest;" vertex="1" parent="rXdjp0I8evFBmd4U9B_b-20">
          <mxGeometry width="520" height="40" as="geometry" />
        </mxCell>
        <mxCell id="rXdjp0I8evFBmd4U9B_b-22" value="" style="shape=partialRectangle;html=1;whiteSpace=wrap;connectable=0;overflow=hidden;fillColor=#ffe6cc;top=0;left=0;bottom=0;right=0;strokeColor=#d79b00;" vertex="1" parent="rXdjp0I8evFBmd4U9B_b-21">
          <mxGeometry width="260" height="40" as="geometry" />
        </mxCell>
        <mxCell id="rXdjp0I8evFBmd4U9B_b-23" value="&lt;b&gt;RateServices&lt;/b&gt;" style="shape=partialRectangle;html=1;whiteSpace=wrap;connectable=0;overflow=hidden;fillColor=#f8cecc;top=0;left=0;bottom=0;right=0;strokeColor=#b85450;" vertex="1" parent="rXdjp0I8evFBmd4U9B_b-21">
          <mxGeometry x="260" width="260" height="40" as="geometry" />
        </mxCell>
        <mxCell id="rXdjp0I8evFBmd4U9B_b-24" value="" style="shape=table;startSize=0;container=1;collapsible=0;childLayout=tableLayout;" vertex="1" parent="rXdjp0I8evFBmd4U9B_b-1">
          <mxGeometry x="555" y="430" width="520" height="120" as="geometry" />
        </mxCell>
        <mxCell id="rXdjp0I8evFBmd4U9B_b-25" value="" style="shape=partialRectangle;collapsible=0;dropTarget=0;pointerEvents=0;fillColor=none;top=0;left=0;bottom=0;right=0;points=[[0,0.5],[1,0.5]];portConstraint=eastwest;" vertex="1" parent="rXdjp0I8evFBmd4U9B_b-24">
          <mxGeometry width="520" height="40" as="geometry" />
        </mxCell>
        <mxCell id="rXdjp0I8evFBmd4U9B_b-26" value="" style="shape=partialRectangle;html=1;whiteSpace=wrap;connectable=0;overflow=hidden;fillColor=#ffe6cc;top=0;left=0;bottom=0;right=0;strokeColor=#d79b00;" vertex="1" parent="rXdjp0I8evFBmd4U9B_b-25">
          <mxGeometry width="260" height="40" as="geometry" />
        </mxCell>
        <mxCell id="rXdjp0I8evFBmd4U9B_b-27" value="&lt;b&gt;Shipper&lt;/b&gt;" style="shape=partialRectangle;html=1;whiteSpace=wrap;connectable=0;overflow=hidden;fillColor=#f8cecc;top=0;left=0;bottom=0;right=0;strokeColor=#b85450;" vertex="1" parent="rXdjp0I8evFBmd4U9B_b-25">
          <mxGeometry x="260" width="260" height="40" as="geometry" />
        </mxCell>
        <mxCell id="rXdjp0I8evFBmd4U9B_b-28" style="shape=partialRectangle;collapsible=0;dropTarget=0;pointerEvents=0;fillColor=none;top=0;left=0;bottom=0;right=0;points=[[0,0.5],[1,0.5]];portConstraint=eastwest;" vertex="1" parent="rXdjp0I8evFBmd4U9B_b-24">
          <mxGeometry y="40" width="520" height="40" as="geometry" />
        </mxCell>
        <mxCell id="rXdjp0I8evFBmd4U9B_b-29" value="&lt;b&gt;LTLAddress&lt;/b&gt;" style="shape=partialRectangle;html=1;whiteSpace=wrap;connectable=0;overflow=hidden;fillColor=#ffe6cc;top=0;left=0;bottom=0;right=0;strokeColor=#d79b00;" vertex="1" parent="rXdjp0I8evFBmd4U9B_b-28">
          <mxGeometry width="260" height="40" as="geometry" />
        </mxCell>
        <mxCell id="rXdjp0I8evFBmd4U9B_b-30" value="&lt;b&gt;AddressInfo&lt;/b&gt;" style="shape=partialRectangle;html=1;whiteSpace=wrap;connectable=0;overflow=hidden;fillColor=#f8cecc;top=0;left=0;bottom=0;right=0;strokeColor=#b85450;" vertex="1" parent="rXdjp0I8evFBmd4U9B_b-28">
          <mxGeometry x="260" width="260" height="40" as="geometry" />
        </mxCell>
        <mxCell id="rXdjp0I8evFBmd4U9B_b-31" style="shape=partialRectangle;collapsible=0;dropTarget=0;pointerEvents=0;fillColor=none;top=0;left=0;bottom=0;right=0;points=[[0,0.5],[1,0.5]];portConstraint=eastwest;" vertex="1" parent="rXdjp0I8evFBmd4U9B_b-24">
          <mxGeometry y="80" width="520" height="40" as="geometry" />
        </mxCell>
        <mxCell id="rXdjp0I8evFBmd4U9B_b-32" value="&lt;b&gt;LTLContact&lt;/b&gt;" style="shape=partialRectangle;html=1;whiteSpace=wrap;connectable=0;overflow=hidden;fillColor=#ffe6cc;top=0;left=0;bottom=0;right=0;strokeColor=#d79b00;" vertex="1" parent="rXdjp0I8evFBmd4U9B_b-31">
          <mxGeometry width="260" height="40" as="geometry" />
        </mxCell>
        <mxCell id="rXdjp0I8evFBmd4U9B_b-33" value="&lt;b&gt;ContactInfo&lt;/b&gt;" style="shape=partialRectangle;html=1;whiteSpace=wrap;connectable=0;overflow=hidden;fillColor=#f8cecc;top=0;left=0;bottom=0;right=0;strokeColor=#b85450;" vertex="1" parent="rXdjp0I8evFBmd4U9B_b-31">
          <mxGeometry x="260" width="260" height="40" as="geometry" />
        </mxCell>
      </root>
    </mxGraphModel>
  </diagram>
</mxfile>
